<svg xmlns="http://www.w3.org/2000/svg" viewBox="0 0 600 600"><g id="Cheveux-2" data-name="Cheveux"><g id="cheveux-courts-4"><path d="M171,259.36s-9.41-106.86-6-119.69,50.44-55.2,65-62.4a183,183,0,0,1,27.35-11.12C260.71,61,273.54,49.91,277,49.91s11.11,10.26,12.82,7.69,12-17.09,15.39-16.24,13.68,18,17.1,17.1S332.52,55,336.8,57.6s20.52,17.1,20.52,17.1c11.68,4.28,56.14,30.35,74.37,65,.86,19.67,1.71,79.51-5.13,119.69-1.71-39.32,7.7-135.07-77.79-165-20.52,11.12-34.2,20.52-47,25.65-11.12-3.42-39.33-16.24-52.15-25.65C235.92,100.35,161.54,117.45,171,259.36Z" style="fill:#c4a97c"/><path id="contour" d="M170.94,261.86a2.49,2.49,0,0,1-2.48-2.28c-.39-4.38-9.41-107.45-5.91-120.55,3.64-13.65,51-56.43,66.28-64a190.21,190.21,0,0,1,26.93-11c3.87-5.09,16.34-16.59,21.19-16.59,2.53,0,5.12,2.28,8.12,4.92,1,.89,2.43,2.13,3.38,2.78,1.33-1.91,3.81-5.33,6.46-8.51,5.09-6.1,8.24-8.32,10.86-7.67,2.26.57,4.6,3.4,8.87,8.77,2.23,2.8,5.88,7.38,7.42,8.23l1.21-.34c4.08-1.14,10.24-2.88,14.81-.13,4.14,2.48,17.76,14.57,20.55,17.07,11.91,4.59,56.45,30.23,75.28,66a2.61,2.61,0,0,1,.28,1.06c0,.71,3,72.14-5.16,120.21a2.5,2.5,0,0,1-5-.31c-.19-4.34-.25-9.44-.31-14.83-.24-22.31-.57-52.86-10.24-81.12-11.34-33.15-32.46-54.89-64.54-66.43-7.29,4-13.79,7.77-19.55,11.13-10,5.82-18.59,10.85-26.75,14.11a2.52,2.52,0,0,1-1.67.07c-11.5-3.54-38.6-16-51.74-25.2-.75.3-1.59.62-2.51,1-9.8,3.7-30.21,11.4-47.1,34.25-21.08,28.52-29.9,71.18-26.22,126.79a2.49,2.49,0,0,1-2.3,2.65Zm177.83-170a2.57,2.57,0,0,1,.82.14c33.74,11.81,56.84,35.33,68.66,69.91,6.83,20,9.12,40.85,10,59.32,2.12-32.48,1.6-66.47,1-80.88-18.31-34.2-62.47-59.54-72.76-63.3a2.56,2.56,0,0,1-.81-.48c-4.47-4-16.8-14.82-20.14-16.82-2.73-1.64-7.63-.26-10.88.66l-1.76.47c-3.29.83-6.42-2.88-12.14-10.06-1.91-2.41-4.74-6-6-6.9-2.32,1.13-8.74,8.9-12.85,15.07a3.34,3.34,0,0,1-2.39,1.49c-2.34.32-4.59-1.66-7.7-4.4-1.45-1.28-3.86-3.39-4.83-3.66-2.75.57-14.24,10.13-17.57,15.12a2.5,2.5,0,0,1-1.38,1,183.29,183.29,0,0,0-27,11c-6.76,3.35-21.59,15.14-36,28.68-15.65,14.64-26.23,26.95-27.61,32.13-1.58,5.92-.15,35.23,1.84,64.52,3.4-31,12.23-56.2,26.42-75.4,17.76-24,39.1-32.09,49.36-35.95,1.45-.55,2.7-1,3.6-1.42a2.51,2.51,0,0,1,2.48.28c12,8.78,38.58,21.13,50.56,25,7.57-3.13,15.42-7.71,25.27-13.46,6-3.53,12.9-7.53,20.67-11.73A2.51,2.51,0,0,1,348.77,91.86ZM305,43.81Z" style="fill:#001e49"/></g></g></svg>