<svg xmlns="http://www.w3.org/2000/svg" viewBox="0 0 600 600"><g id="Cheveux-2" data-name="Cheveux"><g id="cheveux-court-1"><path id="color" d="M171.5,263.08a54.34,54.34,0,0,0,4.87-21.93c0-12.18,8.53-21.92,11-29.23s0-75.52,0-75.52c6.09,7,20.71,4.88,20.71-9.74,6.7,7,21.92,4.87,25.58-7.31,8.52,0,29.23,11,17,14.62s-20.4,5.17-14.62,9.74c5.58,4.4,25.58,13.4,39,1.22,12.12-11,9.74-19.49,9.74-24.36,6.09,1.22,15.84-1.22,21.93-9.74,3.35,8.83,17.05,20.7,29.23,2.43,3,9.14,19.49,14.62,30.45,2.44,7.31,8.52,15.83,12.18,24.36,6.09,1.22,7.31,4.87,9.74,11,8.52,11.57,3.05,6.09,21.93,6.09,21.93s-1.13,47.84-.76,59.68c.15,4.87,8.07,9.74,8.07,29.23,0,9.75,10.28,13.71,11,21.93,8.22-42.48,21.47-74.61,9.59-114.8,5-13.7,12.33-31.52-11.42-28.78.92-15.52,3.66-32.42-22.38-25.57C395,80.68,393.63,51.45,361.2,68.81c-9.13-15.53-18.27-33.8-46.13-8.23-18.73-11.87-33.8-24.2-55.27,2.29-14.16-3.2-41.1-12.33-55.72,24.66-13.25-1.37-24.67-5-27.41,23.75-13.24,6.85-24.2,21-12.33,44.31C156.12,168.83,137.55,143.1,171.5,263.08Z" style="fill:#c4a97c"/><path id="contour" d="M171.5,265.58h-.24a2.52,2.52,0,0,1-2.17-1.81C142.74,170.64,147,163.52,157.41,158.17a12,12,0,0,0,4-2.82c-9.17-19.18-4.4-36.07,12.88-45.64,1.24-11.45,4-18.55,8.64-22.3,5.25-4.25,11.69-3.49,18.52-2.69l1,.12c14.65-34.71,40.89-28.45,55.1-25.06l1.28.3C279.93,35,296,45.36,313,56.3l1.8,1.15c10.35-9.15,19.06-13.06,26.58-11.92,9.83,1.48,15.42,10.82,20.77,20,9.32-4.61,16.83-5.71,22.9-3.36,8.93,3.44,12.47,13.35,15.59,22.09.86,2.43,1.69,4.76,2.58,6.78,8.72-2,14.92-1.38,18.88,1.89,6,5,5.41,14.57,4.8,23.87,6.78-.34,11.37,1.14,14,4.51,5,6.35,1,17.08-2.45,26.55l-.2.54c9.17,31.8,3,58.35-4.07,89-1.93,8.37-3.93,17-5.69,26.13a2.5,2.5,0,0,1-4.95-.27c-.25-3-2.28-5.5-4.62-8.34-3-3.6-6.35-7.68-6.35-13.79,0-12.47-3.41-18.65-5.67-22.73-1.25-2.27-2.33-4.23-2.4-6.42-.37-11.78.71-57.86.76-59.82a2.76,2.76,0,0,1,.1-.64c.81-2.81,2.34-11.12-.27-15.72a6.21,6.21,0,0,0-3.56-2.94c-3.37.56-6.19.08-8.38-1.43a11,11,0,0,1-4.06-5.79c-7.42,3.56-15.36,1.37-22.83-6.34A21.77,21.77,0,0,1,347,124.79a19.15,19.15,0,0,1-11.36-6.9c-5.69,6.78-11.36,7.82-15.32,7.37-5.93-.67-11.09-5.05-14.1-9.9a25.65,25.65,0,0,1-18.78,8c.27,5.27.13,13.58-10.69,23.42-14.47,13.16-36,3.79-42.21-1.11-.82-.64-3.31-2.61-2.77-5.4.71-3.6,5.43-5,14-7.46,1.34-.39,2.75-.79,4.22-1.24a4.62,4.62,0,0,0,2-.93c-.47-2.26-10-7.77-16.57-8.66a17.91,17.91,0,0,1-12.64,10.62A18.29,18.29,0,0,1,210,131.24a14.17,14.17,0,0,1-8.83,10.61,14.7,14.7,0,0,1-11.21-.43c.55,16.76,1.89,64.73-.3,71.29a54.54,54.54,0,0,1-4,8.33c-3.21,5.87-6.84,12.54-6.84,20.11a56.3,56.3,0,0,1-5.14,23A2.48,2.48,0,0,1,171.5,265.58ZM193.73,89.11c-3,0-5.56.51-7.63,2.18-3.65,3-5.92,9.57-6.94,20.23a2.47,2.47,0,0,1-1.34,2c-9.49,4.92-23.58,16.77-11.25,40.95a2.51,2.51,0,0,1-.1,2.46,15.27,15.27,0,0,1-6.78,5.71c-3.47,1.78-6,3.06-5.24,14.66.86,13.56,6.4,38.36,17.37,77.71a50.62,50.62,0,0,0,2.05-13.84c0-8.85,4.13-16.42,7.45-22.51a51.49,51.49,0,0,0,3.64-7.51c1.67-5,.81-48.44-.13-74.64a2.51,2.51,0,0,1,4.39-1.73,9.41,9.41,0,0,0,10.24,2.41c2.27-.85,6.08-3.35,6.08-10.51a2.5,2.5,0,0,1,4.3-1.73c2.65,2.77,7.24,3.87,11.69,2.81a13,13,0,0,0,9.69-9.11,2.51,2.51,0,0,1,2.4-1.78c4.22,0,9.84,2.09,13.69,4,4.05,2,9,5.29,9.55,9.12.25,1.69-.14,4.75-5.47,6.35-1.49.45-2.92.86-4.27,1.25-3.9,1.14-8.65,2.52-10.19,3.55a8.24,8.24,0,0,0,.67.59c5.32,4.2,23.67,12.31,35.75,1.33,9.67-8.8,9.29-15.44,9-20.3-.05-.8-.09-1.54-.09-2.21a2.51,2.51,0,0,1,3-2.45c4.63.93,13.61-.64,19.4-8.75a2.5,2.5,0,0,1,4.37.57c1.74,4.57,6.46,9.75,11.82,10.35,4.55.52,8.93-2.31,13-8.41a2.49,2.49,0,0,1,4.45.59c1.18,3.53,5,6.44,9.68,7.42,6,1.26,12-.88,16.54-5.86a2.4,2.4,0,0,1,1.89-.83,2.53,2.53,0,0,1,1.87.87c7.29,8.52,14.36,10.43,21,5.68a2.49,2.49,0,0,1,3.91,1.63c.51,3,1.45,5,2.82,6,1.18.81,2.88,1,5.19.52a2.54,2.54,0,0,1,1.13,0,11.19,11.19,0,0,1,7.14,5.46c3.84,6.79,1.34,17.22.8,19.25-.09,4.12-1.1,48.09-.75,59.23,0,1,.8,2.39,1.78,4.16,2.5,4.54,6.29,11.39,6.29,25.15,0,4.31,2.52,7.37,5.2,10.61.81,1,1.64,2,2.39,3,1.35-6.36,2.77-12.5,4.15-18.49,7-30.26,13-56.41,3.92-87.3a2.41,2.41,0,0,1,.05-1.57l.48-1.32c2.89-7.83,6.48-17.58,3.21-21.73-1.83-2.33-6-3.13-12.48-2.38a2.51,2.51,0,0,1-2.78-2.63c.05-.94.12-1.88.18-2.82.53-8.08,1.07-16.43-3-19.78-2.9-2.38-8.43-2.53-16.44-.42a2.5,2.5,0,0,1-2.86-1.27,75.49,75.49,0,0,1-3.69-9.16c-2.9-8.1-5.89-16.49-12.68-19.11-5-1.93-12-.52-20.88,4.21a2.5,2.5,0,0,1-3.33-.94l-1-1.63c-4.84-8.27-9.83-16.82-17.44-18-6.2-.93-14.23,3.09-23.89,12a2.5,2.5,0,0,1-3,.26l-3.42-2.19C293,49.36,280.48,41.32,261.75,64.44a2.5,2.5,0,0,1-2.5.87l-2.83-.67c-14.78-3.52-37.11-8.85-50,23.81A2.52,2.52,0,0,1,203.82,90c-1-.1-2-.22-2.93-.33A63.48,63.48,0,0,0,193.73,89.11Z" style="fill:#001e49"/></g></g></svg>