<svg xmlns="http://www.w3.org/2000/svg" viewBox="0 0 600 600"><g id="Cheveux-2" data-name="Cheveux"><g id="cheveux-court-12"><path id="color" d="M175.5,182.12s6.42-60.46,46.77-93.15c39.64-32.1,119.13-35.89,154.59-7.53,31.71,25.37,41.22,45,49.94,100.68-22.13-49.57-57.61-87.24-81.65-90,0,0-21.41,15.85-40,15.85s-44-13.87-44-13.87S212,102.45,175.5,182.12Z" style="fill:#c4a97c"/><path id="contour" d="M426.8,184.62a2.5,2.5,0,0,1-2.28-1.48c-20.68-46.32-55-84.79-78.72-88.39-4.23,3-23.34,15.75-40.68,15.75s-39.74-11.3-44.37-13.74c-2.94.7-13.74,3.76-27.62,13.74-15,10.82-36.84,32.21-55.36,72.66a2.5,2.5,0,0,1-4.76-1.3c.27-2.51,7-61.87,47.69-94.83,40.36-32.69,121.44-36.57,157.72-7.54,32,25.61,42,45.68,50.85,102.25a2.49,2.49,0,0,1-1.76,2.78A2.44,2.44,0,0,1,426.8,184.62Zm-81.65-95h.28c22.9,2.61,53.93,34.06,76,75.66C413.32,122.66,403,105.56,375.3,83.4c-16.2-13-43.87-19.83-74.05-18.37-30.71,1.49-58.93,10.92-77.4,25.89-25.77,20.87-37.47,53.75-42.47,73.88,11-20.13,27.1-42.83,49.15-58.59C247.65,94,260.18,91.75,260.7,91.66a2.54,2.54,0,0,1,1.62.27c.25.14,25,13.57,42.8,13.57,17.57,0,38.33-15.21,38.54-15.36A2.51,2.51,0,0,1,345.15,89.65Z" style="fill:#001e49"/></g></g></svg>