<svg xmlns="http://www.w3.org/2000/svg" viewBox="0 0 600 600"><g id="Cheveux-2" data-name="Cheveux"><path id="cheveux-court-2" d="M172.93,230.55s15.78-54.36,21.63-63.13,3.51-14.61,1.75-18.7-5.26-12.86,1.17-17.54,65.47-21,105.22-21,91.77,15.78,97,21c4.26,4.25.59,15.78-1.75,18.7s-2.34,9.36,1.17,15.2,24,50.86,29.22,65.47c7.6-15.78,15.2-57.87,13.45-70.14s-9.82-52-39.17-73.66c-26.88-19.87-39.16-18.7-64.3-14C318.48,62.2,293.93,42.33,264.12,47S204.5,66.3,199.24,108.38c-14,5.85-36.25,12.28-40.34,36.24S150.72,190.22,172.93,230.55Z" style="fill:#c4a97c;stroke:#001e49;stroke-linecap:round;stroke-linejoin:round;stroke-width:5px"/></g></svg>