<svg xmlns="http://www.w3.org/2000/svg" viewBox="0 0 600 600"><g id="Cheveux-2" data-name="Cheveux"><g id="cheveux-court-11"><path id="color" d="M170.81,233.08s28.12-44.12,26.82-51.47-10.81-29.85-7.78-32.88,61.42-36.77,146.64-5.62c23.79,9.08,38.93,12.11,37.63,4.76s-19.46-32-14.27-28.55,51.91,29.41,52.77,33.74-9.08,35.47-6.92,37.63,20.76,35,22.06,29.85,12.54-32.44,23.36-39.8,20.76-14.71,15.14-21.19-25.09-17.31-24.22-21.2,16.87-24.22,7.35-46.28-34.61-35.48-54.5-20.77c-7.79-13.41-26-51-64.46-51.91s-68.34,18.17-81.75,56.67c-16,1.73-54.94-.86-64.89,19.9s-.86,40.23-.86,40.23c-10.39,2.16-38.93,12.54-42.83,26.38C135.55,178.77,168.22,195,170.81,233.08Z" style="fill:#c4a97c"/><path id="contour" d="M170.81,235.58a2.13,2.13,0,0,1-.61-.08,2.48,2.48,0,0,1-1.88-2.25c-1.39-20.37-11.76-34.35-20.09-45.58C141,178,135.33,170.3,137.7,161.9c4-14.05,29.63-24.24,41.85-27.47-2.2-6.35-6.22-22.43,2-39.55C190.35,76.5,219,75.14,238,74.24c3.35-.16,6.33-.3,8.84-.52C260.53,36.15,290.19,16,330.49,16.89c37.09.84,55.73,34,64.68,49.86l.54,1a32.16,32.16,0,0,1,26.22-3.88c12.57,3.38,24,13.83,29.75,27.25,8.16,18.9-1.09,36.17-5.54,44.46-.61,1.15-1.29,2.41-1.56,3.06,1,1.85,7.1,6.27,11.2,9.24,4.82,3.5,9.81,7.11,12.37,10.07a8.24,8.24,0,0,1,2.16,6.68c-.81,6.21-8.53,11.93-17.79,18.22-10.2,6.94-21.16,33.63-22.33,38.33a3.09,3.09,0,0,1-2.5,2.42c-2.93.46-5.76-2.53-18.71-23.28-2.11-3.38-4.51-7.22-5.07-7.84-1.82-1.83-1.4-5.19,2.86-22.5,1.47-6,3.46-14,3.41-16.17-2.94-3.81-29.64-19.38-41.15-26.09l-4.16-2.43c.57,1,1.16,1.91,1.71,2.82,5.25,8.61,9.32,15.5,10,19.36a5.4,5.4,0,0,1-1.76,5.39c-2.93,2.42-10,3.77-39.22-7.38-43.69-16-79.76-14.23-102.32-10-24.63,4.66-39.39,13.28-41.5,14.9-.57,2.52,2.91,13.1,4.8,18.85a107.67,107.67,0,0,1,3.52,11.95c1.36,7.71-20.46,42.71-27.18,53.26A2.49,2.49,0,0,1,170.81,235.58ZM327.94,21.87c-37.26,0-64.52,19.46-76.9,55A2.52,2.52,0,0,1,249,78.55c-2.95.31-6.54.48-10.69.68-17.8.84-44.7,2.12-52.21,17.81-9.3,19.39-.94,37.91-.86,38.09a2.52,2.52,0,0,1,0,2.18,2.48,2.48,0,0,1-1.72,1.32c-10.63,2.22-37.51,12.45-40.93,24.62-1.7,6,3.35,12.84,9.73,21.44,7.74,10.43,17.15,23.11,20.22,41.08,12-19.3,23.29-40.06,22.71-43.73a111.12,111.12,0,0,0-3.34-11.26c-4.74-14.42-6.53-21-3.75-23.82,2.07-2.07,18.29-11.41,43.8-16.31,23.27-4.47,60.45-6.34,105.47,10.11,31.43,12,34.3,8.21,34.32,8.17a1.28,1.28,0,0,0,0-.63c-.57-3.24-5.64-11.56-9.34-17.63-5.83-9.55-7-11.54-5.07-13.44.49-.47,1.86-1.41,4,0,1.25.83,5.25,3.16,10.32,6.12,36.5,21.28,42.92,26.21,43.52,29.21.46,2.29-.7,7.41-3.44,18.56-1.57,6.36-3.9,15.84-3.75,18.27.84,1,2.28,3.32,5.34,8.24,3.33,5.33,9.65,15.46,13,19.49,3.09-8.59,13-31.32,23.46-38.46,5.63-3.82,15.06-10.23,15.64-14.73a3.3,3.3,0,0,0-1-2.76c-2.19-2.52-6.93-6-11.53-9.29-9.52-6.91-14.07-10.39-13.25-14.08a22.25,22.25,0,0,1,2.14-4.63c4.08-7.6,12.56-23.43,5.36-40.12-5.2-12.06-15.34-21.41-26.46-24.41a27.53,27.53,0,0,0-24.26,4.66,2.5,2.5,0,0,1-3.65-.75c-.57-1-1.21-2.12-1.9-3.36-8.51-15.1-26.2-46.54-60.44-47.31C329.56,21.87,328.74,21.87,327.94,21.87ZM410.31,154Z" style="fill:#001e49"/></g></g></svg>