<svg xmlns="http://www.w3.org/2000/svg" viewBox="0 0 600 600"><g id="Cheveux-2" data-name="Cheveux"><g id="cheveux-court-8"><path id="color" d="M171.62,261.59s-16.45-89.6-13.71-97.83,5.48-10.06,8.23-17.37,6.4-32,24.68-46.63,35.66-38.4,41.14-38.4,20.12,9.15,24.69,6.4S270.36,55,274.93,54.05s31.09,16.46,43,16.46S407.5,76.91,424,108s24.68,45.71,21.94,58.51-19.2,85-19.2,85-11-33.83-13.71-40.23-3.66-37.48-3.66-56.68-.91-37.49-13.71-34.74-15.54,6.4-23.77,0-12.8-13.72-28.35-4.58-23.77,0-29.25-3.65-14.63-6.4-22.86-1.83-13.71,9.14-30.17,5.48-17.37-3.65-24.68,3.66-19.2,11.89-27.43,9.14-16.46-5.48-18.29,4.58.92,70.39-2.74,78.62S171.62,261.59,171.62,261.59Z" style="fill:#c4a97c"/><path id="contour" d="M171.62,264.09h-.14a2.5,2.5,0,0,1-2.32-2C166.4,247,152.73,171.38,155.54,163a49,49,0,0,1,4.63-10,46.47,46.47,0,0,0,3.63-7.43c.46-1.23,1-3.16,1.61-5.38,2.9-10.44,8.28-29.86,23.85-42.32,8.57-6.85,17.15-16,24.05-23.32,9.93-10.55,14.87-15.63,18.65-15.63,2.74,0,6.57,1.56,11,3.35,3.77,1.53,10.79,4.38,12.41,3.41a60,60,0,0,0,6.55-5.32c5.49-4.84,9.33-8.06,12.54-8.7,2.64-.53,7.21,1.63,16.44,6.18S311.64,68,317.91,68c6.87,0,29.48,1.8,51.89,7.15,30.08,7.18,49.05,17.84,56.37,31.66l2.28,4.3c15.11,28.51,22.7,42.82,19.9,55.91-2.72,12.67-19,84.33-19.21,85.06a2.5,2.5,0,0,1-4.82.21c-.1-.34-11-33.79-13.63-40-3.81-8.9-3.86-55.68-3.86-57.67,0-10.1,0-27-5.44-31.4-.85-.68-2.32-1.53-5.25-.9s-5.53,1.37-7.7,2c-6.81,2-10.93,3.14-18.13-2.46-1.15-.89-2.21-1.79-3.23-2.65-6.26-5.27-10.39-8.75-22.31-1.74-15,8.83-24.26,1.92-29.79-2.2-.76-.57-1.48-1.11-2.12-1.53-5.13-3.42-13.15-5.67-20.25-1.73l-2.32,1.32c-7.11,4.08-13.82,7.93-29.61,4.43s-15.86-3.53-22.38,3c-9.61,9.62-22.62,12.2-30,9.75-4.95-1.65-10.07-3.36-12.67-1.82-1.17.7-2,2.15-2.37,4.46-.72,3.95-.69,17-.66,30.75.06,26.06-.06,43.52-2.26,48.45-3.55,8-16.22,49.58-16.35,50A2.5,2.5,0,0,1,171.62,264.09ZM232,63.86c-2.07.3-9.24,7.93-15,14.06-7,7.45-15.72,16.72-24.57,23.79-14.3,11.45-19.41,29.86-22.15,39.75-.68,2.44-1.21,4.37-1.75,5.81a51.4,51.4,0,0,1-4,8.15,44.72,44.72,0,0,0-4.23,9.13c-1.52,4.57,4.77,46.2,12,86.49,4-13,10.95-34.92,13.55-40.75,1.92-4.33,1.86-28.65,1.82-46.41,0-14.63-.06-27.25.74-31.65.69-3.77,2.28-6.41,4.74-7.87,4.57-2.7,10.79-.63,16.8,1.37,6.87,2.29,17.79-1.46,24.87-8.54,8.17-8.17,10.28-8,27-4.33,13.9,3.09,19.26,0,26-3.87.77-.45,1.56-.9,2.38-1.36,9.07-5,19.1-2.3,25.45,1.94.75.5,1.52,1.07,2.34,1.68,5.4,4,12.13,9,24.27,1.9,15-8.81,21.33-3.45,28.06,2.22,1,.84,2,1.7,3.08,2.53,5.2,4,7.17,3.48,13.68,1.6,2.14-.61,4.79-1.37,8-2.07a10.77,10.77,0,0,1,9.44,1.9c6.74,5.46,7.3,19.8,7.3,35.29,0,23.09,1.21,50.46,3.46,55.7,1.9,4.43,7.53,21.33,11,31.84,4.48-19.68,15.05-66.23,17.19-76.18,2.42-11.3-4.88-25.08-19.43-52.52l-2.28-4.3c-6.52-12.32-24.89-22.4-53.11-29.14-22-5.25-44.05-7-50.73-7-7.44,0-19-5.71-29.23-10.74-5.2-2.57-11.66-5.75-13.32-5.76-2.15.49-6.76,4.56-10.14,7.54a61,61,0,0,1-7.28,5.86c-3.77,2.25-10.13-.33-16.87-3.06C237.63,65.45,233.73,63.86,232,63.86Z" style="fill:#001e49"/></g></g></svg>