<svg xmlns="http://www.w3.org/2000/svg" viewBox="0 0 600 600"><g id="Cheveux-2" data-name="Cheveux"><g id="sans_frange" data-name="sans frange"><path id="color" d="M434.41,234.88c-21.65-26.65-31.64-61.61-41.63-94.92-48.29-10-101.57-35-134.88-61.61-5,35-38.29,51.62-64.94,68.27,6.66,50-26.64,106.57-26.64,106.57L163,189.92l28.31-78.26,56.61-59.95h68.27L389.45,85l33.3,55,13.32,63.28Z" style="fill:#c4a97c"/><path id="contour" d="M166.32,255.69a2.55,2.55,0,0,1-1.27-.34,2.51,2.51,0,0,1-.89-3.42c.33-.56,32.79-56.47,26.32-105a2.53,2.53,0,0,1,1.16-2.45c2.73-1.71,5.54-3.42,8.38-5.15,25.12-15.3,51.09-31.13,55.41-61.35a2.5,2.5,0,0,1,4-1.6c33.72,27,87.49,51.53,133.83,61.11a2.52,2.52,0,0,1,1.89,1.73l1,3.41c9.61,32.1,19.55,65.3,40.15,90.65a2.5,2.5,0,1,1-3.88,3.15c-21.22-26.12-31.31-59.8-41.06-92.37l-.6-2c-45.9-9.75-96.72-32.73-131.17-59.21-6.37,29.87-33.21,46.23-57,60.73-2.35,1.44-4.69,2.86-7,4.28,1.7,14.69,1,38.64-11.15,71.6a236.42,236.42,0,0,1-16,35A2.52,2.52,0,0,1,166.32,255.69Z" style="fill:#001e49"/></g></g></svg>