<svg xmlns="http://www.w3.org/2000/svg" viewBox="0 0 600 600"><g id="bouche"><g id="sourire-ouvert"><path id="contour" d="M348.31,312a2.5,2.5,0,0,0-3.19-1.52,131.94,131.94,0,0,1-43.41,7.75,144.74,144.74,0,0,1-46.81-8,2.5,2.5,0,0,0-1.71,4.7q2.44.88,5,1.68c10.21,12,14.73,14.63,20.42,17.89l.87.51c3.49,2,12,2.92,20.79,2.92,9.19,0,18.74-1,23.39-2.75,8.28-3.13,15.81-14.92,17.83-18.28q2.64-.83,5.27-1.75A2.5,2.5,0,0,0,348.31,312Zm-26.39,18.54c-8.17,3.09-34.65,3.21-39.91.18l-.88-.51a50.68,50.68,0,0,1-14.08-11.15,153.46,153.46,0,0,0,34.66,4.17A132.67,132.67,0,0,0,334.17,319C330.93,323.55,326.28,328.92,321.92,330.57Z" style="fill:#001e49"/><path id="color" d="M321.92,330.57c-8.17,3.09-34.65,3.21-39.91.18l-.88-.51a50.68,50.68,0,0,1-14.08-11.15,153.46,153.46,0,0,0,34.66,4.17A132.67,132.67,0,0,0,334.17,319C330.93,323.55,326.28,328.92,321.92,330.57Z" style="fill:#fff"/></g></g></svg>