<svg xmlns="http://www.w3.org/2000/svg" viewBox="0 0 600 600"><g id="Visages"><g id="visage-rond"><path id="rond" d="M175.12,287.28c3.16,64.12,58.68,126,125.41,124.84,57.53-1,120.61-56.84,124.26-121.39,8.63-152.45-42.57-215.3-115-218.75C227,68,166.2,106.36,175.12,287.28Z" style="fill:#efd7d0"/><path d="M298.78,415.2c-64.36,0-123.34-59.23-126.72-127.77h0c-4.63-94,9.14-155.72,42.11-188.75,22.32-22.35,52.73-31.81,95.71-29.76,30.76,1.46,56.23,13.17,75.71,34.78,33,36.64,47.22,99.62,42.26,187.21-3.55,62.81-65.4,123.21-127.27,124.27ZM178.18,287.13c3.25,66,60.34,123.07,122.3,121.92,53-.91,117.54-52.87,121.25-118.49,4.86-85.89-8.83-147.38-40.7-182.75C362.69,87.45,338.65,76.43,309.59,75c-41.12-2-70.07,6.93-91.08,28-31.68,31.73-44.87,92-40.33,184.12Z" style="fill:#001e49"/></g></g></svg>