<svg xmlns="http://www.w3.org/2000/svg" viewBox="0 0 600 600"><g id="Visages"><g id="visage-allonge"><path id="color" d="M171.21,249.73c3.2,64.82,61.94,167.21,129.41,166,58.16-1,116.32-54.68,127.08-166,14.49-149.95-73.28-178-115.16-178S162.2,66.81,171.21,249.73Z" style="fill:#efd7d0"/><path id="contour" d="M299.5,418.88c-68,0-128.07-101.81-131.38-169h0c-3.35-68,9.29-117.53,37.57-147.16,32.72-34.27,78.84-34.12,103.64-34.07h3.21c11.84,0,52.89,2.67,84,37C425.46,137.43,437,186,430.79,250c-11.9,123.18-77.53,168-130.12,168.85ZM174.31,249.57c1.58,32,17.29,73.69,40,106.15,15,21.36,45.83,57,85.1,57h1.12c50-.87,112.54-44.14,124.05-163.25,6-62.2-5-109.18-32.63-139.64-29.44-32.42-68.25-34.94-79.45-34.94h-3.23c-25.51,0-68.26-.19-99.14,32.15-27.06,28.35-39.12,76.33-35.86,142.57Z" style="fill:#001e49"/></g></g></svg>