<svg xmlns="http://www.w3.org/2000/svg" viewBox="0 0 600 600"><g id="Visages"><g id="visage-carre-long"><path id="color" d="M429.36,210.76c.86-18.38.73-33.89.73-57,0-40.65-87.41-82.06-126.06-82-41.66,0-132.11,31.09-133.84,82.89-.52,15.58-.39,35.18.76,56.26-2.61.35-25.74,4.6-23.6,44.24.48,8.93,6.85,37.07,32.74,38.74,4,24.85,9.34,49.73,16,58.49,18.12,23.84,40.8,42.62,67.38,58.56,5.76,3.46,15.8,5.92,38.83,5.34,28.2-.7,35.64-2.33,43.49-7.64,21.3-14.39,39.59-28.9,60.12-58,6.73-9.53,11.67-31.63,15.42-57.4,23.77-3.28,29.74-29.86,30.2-38.49C453.45,219.21,435.08,212.1,429.36,210.76Z" style="fill:#efd7d0"/><path id="contour" d="M432.53,208.61c.65-15.18.64-28.69.63-46.76v-8.11c0-26.08-31.37-48.11-50.07-58.92-27.08-15.66-58.82-26.17-79-26.17H304c-38.9,0-135,30.15-136.89,85.85-.32,9.36-.66,29,.61,54-7.46,2.25-25.32,11.34-23.41,46.74.4,7.4,4.19,24,15.7,33.76a32.81,32.81,0,0,0,17.4,7.62c5,30.87,10.37,49.84,16.22,57.55,17.29,22.75,39.61,42.16,68.24,59.33,6.68,4,17.3,5.86,34,5.86,2.08,0,4.24,0,6.51-.08,27.9-.7,36.33-2.23,45.12-8.17,23.54-15.9,41.05-30.61,60.92-58.75,6.13-8.68,11.23-27,15.62-56.55a32.54,32.54,0,0,0,14.81-7.19c11.51-9.79,15.3-26.36,15.7-33.75C456.35,221.52,440.6,211.53,432.53,208.61ZM164,284.41c-9.94-8.46-13.23-23-13.58-29.47-1.6-29.68,11.35-38,17.71-40.25.5,8.41,1.19,17.34,2.12,26.63l-5.51-.58a3,3,0,0,0-.63,6l6.79.71c.11,1.06.23,2.11.35,3.17q2.55,22.2,5.23,39.7A26.72,26.72,0,0,1,164,284.41Zm239.46,64.43c-19.33,27.37-36.39,41.71-59.34,57.21-7.11,4.81-13.81,6.41-41.85,7.12-25,.62-33.17-2.5-37.17-4.91-28-16.76-49.71-35.67-66.51-57.78-5.2-6.84-13.11-29.84-21.25-100.54a674.65,674.65,0,0,1-4-95.23C174.91,105,264.9,74.81,304,74.78h0C323,74.78,354.2,85.2,380,100.13c29.87,17.27,47,36.81,47,53.61v8.11c0,31.92,0,49.5-3.64,87.47C418,304.83,411.49,337.38,403.41,348.84Zm45.1-94.28c-.35,6.5-3.64,21-13.58,29.47a26.41,26.41,0,0,1-10,5.35c1.6-11.57,3.1-24.69,4.53-39.47.1-1,.19-2,.29-3l5-.53a3,3,0,1,0-.63-6l-3.84.4c.86-9.74,1.46-18.12,1.88-25.89C438.92,217.86,450,227,448.51,254.56Z" style="fill:#001e49"/></g></g></svg>