<svg xmlns="http://www.w3.org/2000/svg" viewBox="0 0 600 600"><g id="Visages"><g id="visage-rond"><path id="color" d="M428.25,210.46l-3.05,15.9C417.64,120.28,371.58,74.9,310.29,72c-73.08-3.48-129,26-135,157.6l-3.59-18.75s-26.11,2.27-23.84,44.27c.45,8.39,6.09,33.71,28.21,38.16,6.19,61.93,60.31,120,125,118.86,57-1,119.38-55.77,124.13-119.53,21-5.18,26.43-29.65,26.87-37.87C454.36,212.73,428.25,210.46,428.25,210.46Z" style="fill:#efd7d0"/><path id="contour" d="M426.51,207.44h0c-5.52-45.29-19-80-40.36-103.74-19.47-21.61-44.94-33.32-75.7-34.78-43-2-73.4,7.41-95.71,29.76-22.54,22.58-36.1,58.59-40.95,109.14h-.3c-.29,0-29,3-26.59,47.44.4,7.4,4.19,24,15.7,33.76a32.62,32.62,0,0,0,10.65,6.07c7.19,65.23,64.14,120.11,126.1,120.11l1.8,0c60.78-1.05,121.55-59.37,127-121a32.79,32.79,0,0,0,9.24-5.56c11.5-9.79,15.3-26.36,15.7-33.75C455.51,210.48,426.81,207.47,426.51,207.44Zm-260,77c-9.94-8.46-13.23-23-13.58-29.47-1.88-34.8,16.26-40.21,20.31-41q-1.05,13.11-1.35,27.48l-6.64-.7a3,3,0,0,0-.63,6l7.17.75q-.21,18.9.83,39.92c0,.31,0,.61,0,.91A26.38,26.38,0,0,1,166.51,284.41ZM301,409.05c-62,1.15-119-55.9-122.3-121.92C174.2,195,187.39,134.74,219.07,103c21-21,49.95-29.93,91.08-28,29.06,1.39,53.1,12.41,71.44,32.77,31.87,35.37,45.56,96.86,40.7,182.75C418.58,356.18,354.06,408.14,301,409.05Zm146-154.49c-.35,6.5-3.64,21-13.58,29.47a26.87,26.87,0,0,1-4.9,3.31q1.08-21.12.65-40.31l6.14-.65a3,3,0,1,0-.63-6l-5.69.6q-.51-14.21-1.86-27.29C432,214.75,448.89,220.93,447.07,254.56Z" style="fill:#001e49"/></g></g></svg>