<svg xmlns="http://www.w3.org/2000/svg" viewBox="0 0 600 600"><g id="Visages"><g id="visage-carre-menton"><path id="color" d="M450.68,253.17c-1-42-27.22-42.27-27.22-42.27l-1.79,16C428,96.62,348.41,71.65,309.64,71.65c-37.74,0-124.82-5.22-131.31,140.06-2.57,0-26.13,1.15-29.16,40.79-.72,9.38,2.22,40.68,31.52,43.28,1.85,23.51,5.05,46,10.91,53.7,17.63,23.18,47.5,34.88,73.36,50.39,5.6,3.36,15.68,12.88,38.07,12.32,27.44-.68,34.36-9.4,42-14.56,20.72-14,37.18-21.55,59.35-48.15,8.23-9.87,11-30.86,12.68-54.75C446.35,293.6,450.91,262.56,450.68,253.17Z" style="fill:#efd7d0"/><path id="contour" d="M453.71,253.1C452.77,214.56,431,208.86,425,208c-.69-44.46-12.22-79.28-34.45-103.76-30-33-69.5-35.59-80.9-35.59h-3.8c-23.59-.09-63.1-.28-92.59,30-22.46,23.06-35.1,60.08-37.75,110.3-7.66,1.23-26.63,7.86-29.35,43.3-.56,7.38,1,24.3,11.18,35.51a33.41,33.41,0,0,0,20.59,10.71c2.05,25.1,5.39,45,11.31,52.79,13.63,17.94,34.42,29.22,54.53,40.12,6.54,3.55,13.29,7.21,19.66,11,.77.46,1.62,1,2.59,1.7,6.14,4.17,16.27,11.07,35.12,11.07l2,0c24.32-.6,33.56-7.58,40.3-12.67,1.13-.85,2.2-1.66,3.29-2.4,4-2.71,7.86-5.18,11.63-7.59,15.53-9.95,30.2-19.35,48.34-41.12,8.46-10.15,11.42-30.42,13.17-53.82a33.46,33.46,0,0,0,20.85-9.6C451.4,277.31,453.89,260.5,453.71,253.1Zm-291.9,30.62c-8.75-9.68-10.13-24.5-9.63-31,2.3-30,16.55-36.33,23-37.65q-.48,13-.08,27.1l-6.92-1.66a3,3,0,1,0-1.41,5.88l8.51,2c.5,15.23,1.14,30.17,2.12,43.83A27.36,27.36,0,0,1,161.81,283.72Zm240.28,63.85c-17.56,21.07-31.19,29.8-47,39.92-3.8,2.44-7.7,4.93-11.75,7.67-1.18.79-2.33,1.67-3.55,2.58-6.43,4.86-14.44,10.91-36.85,11.47-18.19.44-27.84-6.1-33.6-10-1.07-.73-2-1.38-2.87-1.88-6.48-3.89-13.29-7.59-19.88-11.16-19.56-10.61-39.78-21.57-52.63-38.49-10-13.19-12-76.71-12.82-103.83v-.28c-2.05-66.49,10.19-113.84,36.38-140.73,27.72-28.47,65.64-28.32,88.29-28.21h3.82c10.78,0,48.14,2.43,76.49,33.64,26.62,29.33,37.19,74.56,31.41,134.44-1,10.65-1.67,21.94-2.29,32.87C413.56,305.23,411.81,335.9,402.09,347.57Zm18.18-56.14c.34-5.08.63-10.27.93-15.51.53-9.24,1.07-18.74,1.85-27.85l10.32-1.91a3,3,0,1,0-1.1-5.95l-8.66,1.6q1.33-14.4,1.41-27.71c5.32.88,21.84,6.26,22.64,39.14.16,6.51-2,21.24-11.23,30.45A27.46,27.46,0,0,1,420.27,291.43Z" style="fill:#001e49"/></g></g></svg>