<svg xmlns="http://www.w3.org/2000/svg" viewBox="0 0 600 600"><g id="Visages"><g id="visage-pointu"><path id="color" d="M431.25,210.15l-1.52,7.91C424.07,95.4,352.08,71.8,313,71.8c-39.88,0-132.62-4.62-142.31,149.06l-2-10.34s-26.11,2.27-23.84,44.27c.46,8.56,6.32,34.76,29.6,38.41C195.67,387.65,283.66,420,301,420.19S401.26,390.89,424.1,293c24.44-2.79,30.52-29.87,31-38.6C457.36,212.42,431.25,210.15,431.25,210.15Z" style="fill:#efd7d0"/><path id="contour" d="M432.2,207.23c-3.65-45.46-17.09-80.61-40.17-104.78C362.91,72,327.09,68.66,313,68.66h-3.39c-25.13-.07-67.18-.2-99.38,32.15-22.83,22.94-36.75,58.74-41.58,106.71h-.21c-.29,0-29,3-26.59,47.44.4,7.4,4.19,24,15.7,33.75A32.43,32.43,0,0,0,172,295.81c22.12,92.63,108.49,127.31,129,127.51h.1c14,0,101.39-26.12,125.74-127.63a32.63,32.63,0,0,0,15.63-7.36c11.5-9.79,15.3-26.36,15.7-33.75C460.3,214,436.58,208,432.2,207.23ZM161.51,284.1c-9.94-8.46-13.23-23-13.58-29.47-1.87-34.49,15.93-40.11,20.19-40.95q-1.08,13-1.29,27.23l-4.58-.48a3,3,0,0,0-.63,6l5.15.54c0,1.68,0,3.36,0,5.06a197.21,197.21,0,0,0,3.73,37.1A26.63,26.63,0,0,1,161.51,284.1Zm206.73,98.8c-29.48,26.15-59.37,34.15-67.13,34.15H301c-22.36-.22-127-43.92-127.94-165-.55-69.06,13.47-118.44,41.66-146.78,28.81-28.94,66.68-30.3,91.11-30.3H313c13.24,0,47,3.1,74.45,31.84,29,30.33,42.09,79.15,39,145.1C423.36,320.26,393.08,360.87,368.24,382.9Zm83.83-128.65c-.35,6.5-3.64,21-13.58,29.47a26.44,26.44,0,0,1-10.24,5.42,237.68,237.68,0,0,0,4.55-37c.08-1.86.15-3.7.21-5.53l5.37-.57a3,3,0,1,0-.63-6l-4.58.48q.25-14.07-.53-27.06C438,214.82,453.84,221.57,452.07,254.25Z" style="fill:#001e49"/></g></g></svg>