<svg xmlns="http://www.w3.org/2000/svg" viewBox="0 0 600 600"><g id="Sourcils-2" data-name="Sourcils"><g id="haussement"><g id="sourcil-droit"><path id="color" d="M319.72,174.29c1.51-7.93,10.88-12.49,31.73-9.22,21.06,3.31,35.22,11,32.53,19.83-2.4,7.92-13,3.29-26.91,2S317.14,187.85,319.72,174.29Z" style="fill:#c4a97c"/><path id="contour" d="M376.59,190.41a62.5,62.5,0,0,1-9.71-1.16c-3-.49-6.37-1.06-9.91-1.39-2.68-.26-5.82-.38-9.15-.5-10.89-.42-23.23-.89-27.62-6.41a8.09,8.09,0,0,1-1.46-6.84h0c2.44-12.83,21.64-11.79,32.87-10,16.57,2.6,28.32,7.69,32.26,14a8.38,8.38,0,0,1,1.07,7.15C383.72,189.2,380.71,190.41,376.59,190.41ZM320.7,174.48a6.14,6.14,0,0,0,1.06,5.23c3.83,4.8,16.2,5.27,26.14,5.65,3.35.12,6.52.24,9.26.51,3.61.34,7,.91,10,1.41,9.39,1.56,14.35,2.15,15.81-2.67a6.45,6.45,0,0,0-.85-5.51c-3.57-5.69-15.11-10.57-30.88-13-18.14-2.85-29,.14-30.59,8.42Z" style="fill:#001e49"/></g><g id="sourcil-gauche"><path id="color-2" data-name="color" d="M291.65,195.65c-.11-8.07-8.55-14.2-29.65-14.6-21.32-.41-36.59,4.68-35.48,13.88,1,8.21,12.22,5.49,26.16,6.6S291.83,209.44,291.65,195.65Z" style="fill:#c4a97c"/><path id="contour-2" data-name="contour" d="M278.14,205.18a127.58,127.58,0,0,1-16.44-1.55c-3.3-.46-6.41-.89-9.1-1.1-3.54-.28-7-.32-10-.35-9.07-.08-16.23-.15-17.07-7.13a8.4,8.4,0,0,1,2.29-6.86c5-5.49,17.43-8.45,34.2-8.14,11.36.21,30.45,2.53,30.63,15.58h0a8.12,8.12,0,0,1-2.63,6.49C287.41,204.42,283.12,205.18,278.14,205.18ZM259.66,182c-14.81,0-26.07,2.76-30.35,7.5a6.49,6.49,0,0,0-1.8,5.28c.61,5,5.6,5.28,15.11,5.37,3.06,0,6.53.07,10.14.36,2.74.21,5.89.65,9.21,1.1,9.86,1.36,22.12,3.05,26.73-1a6.11,6.11,0,0,0,1.95-5h0c-.12-8.43-10.3-13.26-28.67-13.61C261.2,182,260.42,182,259.66,182Z" style="fill:#001e49"/></g></g></g></svg>