<svg xmlns="http://www.w3.org/2000/svg" viewBox="0 0 600 600"><g id="Sourcils-2" data-name="Sourcils"><g id="normal"><g id="sourcil-droit"><path id="color" d="M321.86,190.55c1.25-8,10.46-12.85,31.41-10.25,21.16,2.61,35.56,9.81,33.16,18.76-2.15,8-12.87,3.7-26.84,2.83S319.72,204.18,321.86,190.55Z" style="fill:#c4a97c"/><path id="contour" d="M378.46,204.81a72.51,72.51,0,0,1-9-.85c-3-.39-6.4-.85-10-1.07-2.69-.17-5.83-.18-9.16-.2-10.9-.06-23.25-.13-27.82-5.5a8.08,8.08,0,0,1-1.68-6.8l1,.16-1-.16c2-12.9,21.24-12.48,32.52-11.09,16.65,2.06,28.57,6.76,32.7,12.9a8.38,8.38,0,0,1,1.3,7.12C386.24,203.61,383,204.81,378.46,204.81ZM343,180.6c-12,0-19.07,3.47-20.11,10.1a6.12,6.12,0,0,0,1.23,5.19c4,4.68,16.36,4.74,26.31,4.8,3.36,0,6.53,0,9.28.2,3.61.23,7,.69,10.08,1.09,9.43,1.26,14.42,1.69,15.72-3.18a6.47,6.47,0,0,0-1-5.48c-3.75-5.58-15.45-10.07-31.28-12A83.67,83.67,0,0,0,343,180.6Z" style="fill:#001e49"/></g><g id="sourcil-gauche"><path id="color-2" data-name="color" d="M286.15,190.55c-1.25-8-10.47-12.85-31.42-10.25-21.16,2.61-35.56,9.81-33.16,18.76,2.15,8,12.88,3.7,26.84,2.83S288.28,204.18,286.15,190.55Z" style="fill:#c4a97c"/><path id="contour-2" data-name="contour" d="M229.54,204.81c-4.52,0-7.78-1.2-8.93-5.49a8.41,8.41,0,0,1,1.3-7.12c4.13-6.14,16.05-10.84,32.7-12.9,11.28-1.39,30.5-1.81,32.53,11.09h0a8.12,8.12,0,0,1-1.69,6.8c-4.57,5.37-16.92,5.44-27.82,5.5-3.33,0-6.47,0-9.16.2-3.55.22-6.95.68-9.95,1.07A72.33,72.33,0,0,1,229.54,204.81Zm35.51-24.21a83.52,83.52,0,0,0-10.19.69c-15.84,2-27.54,6.45-31.29,12a6.47,6.47,0,0,0-1,5.48c1.31,4.86,6.28,4.44,15.72,3.18,3-.4,6.47-.86,10.08-1.09,2.75-.17,5.92-.18,9.28-.2,9.95-.06,22.33-.12,26.31-4.8a6.12,6.12,0,0,0,1.23-5.19C284.12,184.07,277.08,180.6,265.05,180.6Z" style="fill:#001e49"/></g></g></g></svg>