<svg xmlns="http://www.w3.org/2000/svg" viewBox="0 0 600 600"><g id="Sourcils-2" data-name="Sourcils"><g id="determiné"><g id="sourcil-gauche"><path id="color" d="M287,196.28c.82-8-6.84-15.09-27.76-17.93-21.12-2.87-36.88.41-36.85,9.67,0,8.28,11.5,6.88,25.22,9.6S285.59,210,287,196.28Z" style="fill:#c4a97c"/><path id="contour" d="M276.73,204.46c-6,0-13.49-1.94-20.39-3.72-3.22-.83-6.27-1.62-8.91-2.14-3.49-.69-6.89-1.12-9.9-1.5-9-1.14-16.1-2-16.13-9.07a8.4,8.4,0,0,1,3.08-6.55c5.56-4.88,18.28-6.38,34.91-4.12,11.26,1.53,29.95,6,28.61,19h0a8.11,8.11,0,0,1-3.36,6.14C282.64,203.92,279.89,204.46,276.73,204.46Zm-31.31-26.12c-9.17,0-16.15,1.6-19.62,4.65a6.49,6.49,0,0,0-2.4,5c0,5,4.95,5.9,14.38,7.09,3,.39,6.48.82,10,1.53,2.7.53,5.77,1.32,9,2.16,9.63,2.49,21.62,5.59,26.66,2.08a6.09,6.09,0,0,0,2.51-4.7c.87-8.38-8.69-14.36-26.89-16.84A102.89,102.89,0,0,0,245.42,178.34Z" style="fill:#001e49"/></g><g id="sourcil-droit"><path id="color-2" data-name="color" d="M317.76,196.28c-.82-8,6.85-15.09,27.76-17.93,21.13-2.87,36.88.41,36.85,9.67,0,8.28-11.5,6.88-25.22,9.6S319.18,210,317.76,196.28Z" style="fill:#c4a97c"/><path id="contour-2" data-name="contour" d="M328,204.46c-3.16,0-5.91-.54-7.91-1.93a8.11,8.11,0,0,1-3.36-6.14h0c-1.34-13,17.35-17.5,28.61-19,16.62-2.26,29.35-.76,34.91,4.12a8.4,8.4,0,0,1,3.08,6.55c0,7-7.14,7.93-16.13,9.07-3,.38-6.41.81-9.9,1.5-2.64.52-5.68,1.31-8.91,2.14C341.53,202.52,334,204.46,328,204.46Zm-9.28-8.28a6.09,6.09,0,0,0,2.51,4.7c5,3.51,17,.41,26.66-2.08,3.25-.84,6.32-1.63,9-2.16,3.56-.71,7-1.14,10-1.53,9.43-1.19,14.36-2.05,14.38-7.09a6.45,6.45,0,0,0-2.4-5c-5.05-4.44-17.51-5.8-33.32-3.65-18.2,2.48-27.75,8.46-26.89,16.84Z" style="fill:#001e49"/></g></g></g></svg>