<svg xmlns="http://www.w3.org/2000/svg" viewBox="0 0 600 600"><g id="Sourcils-2" data-name="Sourcils"><g id="fins"><g id="sourcil-droite"><path id="color" d="M386.3,205.1s-17.06-34.74-61.62-13.89c-11.32,5.3,3.18,15.28,20.55,9.85C361.18,196.07,386.3,205.1,386.3,205.1Z" style="fill:#c4a97c"/><path id="contour" d="M386.3,206.1a1,1,0,0,1-.34,0c-.25-.09-25-8.87-40.43-4-11.9,3.72-23.51.48-25.56-4.79-.49-1.25-1-4.43,4.28-6.93,44.93-21,62.77,14,62.94,14.36a1,1,0,0,1-.15,1.11A1,1,0,0,1,386.3,206.1Zm-29.69-7.55c11,0,22.45,3.18,27.46,4.76a40.65,40.65,0,0,0-12.48-12.17c-12.73-7.83-28.37-7.5-46.49,1-1.57.73-4.08,2.28-3.27,4.38,1.33,3.41,11.1,7.36,23.1,3.61A39.59,39.59,0,0,1,356.61,198.55Z" style="fill:#001e49"/></g><g id="sourcil-"><path id="color-2" data-name="color" d="M221.48,205.51s16.62-35,61.45-14.66c11.38,5.15-3,15.84-20.39,10.62C246.52,196.68,221.48,205.51,221.48,205.51Z" style="fill:#c4a97c"/><path id="contour-2" data-name="contour" d="M221.49,206.51a1,1,0,0,1-.91-1.43c.17-.36,17.56-35.61,62.76-15.15,5.39,2.45,4.84,5.74,4.36,7-2,5.44-13.6,9-25.45,5.46-15.51-4.64-40.18,3.94-40.43,4A1,1,0,0,1,221.49,206.51Zm35.32-21a38.31,38.31,0,0,0-20.88,5.86,40.72,40.72,0,0,0-12.29,12.34c6.79-2.1,25.84-7.23,39.18-3.24,11.58,3.47,21.51-.26,23-4.24.84-2.24-1.71-3.79-3.31-4.51C273.38,187.62,264.74,185.55,256.81,185.55Z" style="fill:#001e49"/></g></g></g></svg>