<svg xmlns="http://www.w3.org/2000/svg" viewBox="0 0 600 600"><g id="Sourcils-2" data-name="Sourcils"><g id="arqués"><g id="sourcil-droit"><path id="color" d="M378.36,197.37s-11.12-35.12-55.19-14.61c-4.16,1.93-7.49,16.85,10.69,11.34C357.64,186.9,378.36,197.37,378.36,197.37Z" style="fill:#c4a97c"/><path id="contour" d="M378.36,198.37a1,1,0,0,1-.45-.1c-.2-.11-20.66-10.2-43.76-3.21-10.64,3.22-13.83-.49-14.78-3-1.45-3.78.68-9,3.38-10.22,15.39-7.16,28.56-8.44,39.12-3.79,13.12,5.76,17.28,18.47,17.45,19a1,1,0,0,1-1,1.3ZM351.1,190.6a70.09,70.09,0,0,1,25.4,4.87c-1.77-3.81-6.35-11.6-15.46-15.59-10-4.4-22.61-3.12-37.45,3.79-1.69.78-3.46,4.8-2.35,7.69,1.21,3.19,5.59,3.82,12.33,1.79A60.21,60.21,0,0,1,351.1,190.6Z" style="fill:#001e49"/></g><g id="sourcil-gauche"><path id="color-2" data-name="color" d="M221.64,197.37s11.12-35.12,55.19-14.61c4.16,1.93,7.49,16.85-10.69,11.34C242.36,186.9,221.64,197.37,221.64,197.37Z" style="fill:#c4a97c"/><path id="contour-2" data-name="contour" d="M221.64,198.37a1,1,0,0,1-.65-.23,1,1,0,0,1-.31-1.07c.17-.54,4.33-13.25,17.44-19,10.57-4.65,23.73-3.37,39.13,3.79,2.7,1.26,4.83,6.44,3.38,10.22-.95,2.5-4.14,6.21-14.78,3-23.12-7-43.56,3.1-43.76,3.21A1,1,0,0,1,221.64,198.37Zm30.12-21.05A31.48,31.48,0,0,0,239,179.88c-9.1,4-13.68,11.78-15.45,15.59,6.12-2.46,23.63-8.17,42.93-2.32,6.74,2,11.12,1.4,12.33-1.79,1.11-2.89-.66-6.91-2.35-7.69C267.33,179.44,259.08,177.32,251.76,177.32Z" style="fill:#001e49"/></g></g></g></svg>