<svg xmlns="http://www.w3.org/2000/svg" viewBox="0 0 600 600"><g id="lunettes"><g id="lunettes-3"><path id="fond-2" data-name="fond" d="M420.66,239.34,408.84,224.5a2.9,2.9,0,0,0-2.29-1.1h-3.3v-.08a14.23,14.23,0,0,0-7.43-12c-26.08-14-71-5.51-81.53.7H285.88c-10.33-6.21-55.49-14.81-81.67-.78a14.21,14.21,0,0,0-7.42,12,.22.22,0,0,0,0,.08h-3.3a2.91,2.91,0,0,0-2.29,1.11l-11.82,14.84a2.93,2.93,0,0,0,4.58,3.65l10.94-13.74h1.83c.13,12,2,33.77,13.35,42.79a47.41,47.41,0,0,0,28.8,9.79l1.1,0c9.38-.23,23.19-3.51,35.69-17.83,8.8-10.07,14-24,15.19-34.73h18.32c1.16,10.73,6.38,24.71,15.2,34.8,12.51,14.33,26.31,17.61,35.7,17.84h1.09A47.41,47.41,0,0,0,390,272c11.33-9,13.22-30.74,13.35-42.78h1.83L416.08,243a2.93,2.93,0,1,0,4.58-3.65Zm-111.6-17.51c-.05.48-.07,1-.1,1.49H291.07c0-.53-.05-1.07-.1-1.57a19.67,19.67,0,0,0-.81-3.84H309.9A18.77,18.77,0,0,0,309.06,221.83Z" style="fill:#061e4e"/><path id="reflet-droit" d="M371.45,251.2c1.63-7.93,16.32-25.95,24.43-32.06a8.07,8.07,0,0,0-2.83-2.55h0c-8.35-4.48-18.81-6.44-29.31-6.89-5.24,5.12-14.4,15.07-18.41,25.56-4.19,11-13.24,19.5-17.88,23.33.44.55.87,1.1,1.33,1.62,8.21,9.39,17.29,13.94,26,15.38C362.67,271.29,369.79,259.22,371.45,251.2Z" style="fill:#4f60a3"/><path id="reflet-" d="M257.79,252c1.78-8.65,19.08-29.28,26.45-33.41a3.59,3.59,0,0,0-1-1.35c-3.48-2.61-16.82-6.32-32.38-7.5-5.05,4.84-15,15.28-19.19,26.32-4.36,11.43-16,22.7-21.35,27.52a17.15,17.15,0,0,0,3.39,3.72,41.28,41.28,0,0,0,28.54,8.42C249.69,270.9,256.22,259.6,257.79,252Z" style="fill:#4f60a3"/></g></g></svg>