<svg xmlns="http://www.w3.org/2000/svg" viewBox="0 0 600 600"><g id="lunettes"><path id="lunettes-2" d="M426.88,235.5,404.74,214v-.11l-1-.86c-18.67-16-75.65-14-91.42-3.31l-1.06.72-.2,1.27a70.07,70.07,0,0,0-.74,10.56H289.68a68.79,68.79,0,0,0-.74-10.56l-.19-1.27-1.07-.72C271.91,199,214.94,197,196.27,213l-1,.86V214L173.13,235.5a2.93,2.93,0,1,0,4.08,4.2l18.25-17.76c.89,13.65,5.3,43.51,26.74,50a75.56,75.56,0,0,0,21.67,3.21c11.29,0,21.74-2.66,28.94-7.77s15.14-20.87,16.63-39.25h21.13c1.48,18.38,9.44,34.17,16.62,39.25s17.66,7.77,28.95,7.77a75.61,75.61,0,0,0,21.67-3.21c21.43-6.45,25.84-36.31,26.73-50l18.25,17.76a3,3,0,0,0,2,.83,2.93,2.93,0,0,0,2-5ZM269.43,262.57c-8.32,5.89-26.12,9.57-45.54,3.73C203,260,201.25,224.07,201.11,216.61c17.06-12.8,67.19-11.32,82.22-2.74C286.37,237.23,276,257.9,269.43,262.57Zm106.69,3.73c-19.42,5.84-37.22,2.16-45.54-3.73-6.59-4.67-16.95-25.34-13.91-48.7,15-8.58,65.16-10.06,82.22,2.74C398.75,224.07,397,260,376.12,266.3Z" style="fill:#061e4e"/></g></svg>