<svg xmlns="http://www.w3.org/2000/svg" viewBox="0 0 600 600"><g id="lunettes"><path id="lunettes-1" d="M434.13,235.78l-24-19a8.49,8.49,0,0,0-6.39-6.3c-1.8-.54-44.68-13.12-85.56-1.2a8.37,8.37,0,0,0-5.35,4.8l-25.41-.47a8.36,8.36,0,0,0-5.52-5.23c-40.87-11.92-83.76.66-85.28,1.13a8.66,8.66,0,0,0-6.66,6.37l-24,19a3.15,3.15,0,0,0,2,5.62,3.09,3.09,0,0,0,1.95-.68l19.57-15.49c-.35,16.49,2,42.57,19.89,45.39a176,176,0,0,0,26.19,1.63c15.54,0,30.25-1.19,34.31-1.55a8.17,8.17,0,0,0,2-.42c7.29-2.55,12.11-8.12,13.23-15.29,1.27-8.1,2.37-23,2.83-34.2l24.38.45c.45,11.24,1.57,26.45,2.85,34.66,1.12,7.16,6,12.74,13.25,15.29a8.29,8.29,0,0,0,2,.42c2.54.22,18,1.52,34.41,1.52a176.68,176.68,0,0,0,26.08-1.6c17.91-2.83,20.24-28.9,19.89-45.4l19.57,15.49a3.15,3.15,0,0,0,3.91-4.94ZM278.75,253.12c-1,6.57-6.14,9.28-9.09,10.31a2,2,0,0,1-.48.1c-3.86.34-38.36,3.22-59,0-12.72-2-15.71-24.93-14.27-45.71a2.48,2.48,0,0,1,2.16-2.2,178.61,178.61,0,0,1,45.67-6,130.79,130.79,0,0,1,36.32,4.79,2.18,2.18,0,0,1,1.52,2.19C281.27,227.76,280.1,244.48,278.75,253.12Zm111,11.29c-20.64,3.25-55.1.36-59,0a3,3,0,0,1-.47-.09c-2.95-1-8.06-3.75-9.08-10.32-1.35-8.62-2.52-25.35-2.88-36.54a2.18,2.18,0,0,1,1.52-2.18,130.28,130.28,0,0,1,36.3-4.79,180,180,0,0,1,46,6.05,2.34,2.34,0,0,1,1.87,2.13C405.5,239.48,402.51,262.4,389.78,264.41Z" style="fill:#061e4e"/></g></svg>