<svg xmlns="http://www.w3.org/2000/svg" viewBox="0 0 600 600"><g id="Visages"><g id="visage-carre-menton"><path id="color" d="M350,437.13l.38-43c18.29-11.92,33.77-20.34,54-44.61,8.23-9.87,11-30.86,12.68-54.75,29.29-1.13,33.85-32.17,33.62-41.56-1-42-27.22-42.27-27.22-42.27l-1.79,16C428,96.62,348.41,71.65,309.64,71.65c-37.74,0-124.82-5.22-131.31,140.06-2.57,0-26.13,1.15-29.16,40.79-.72,9.38,2.22,40.68,31.52,43.28,1.85,23.51,5.05,46,10.91,53.7,14,18.42,35.74,29.59,57.05,41.18l-.2,46.47S148.94,430,144.35,599.92H455.63S460.22,443.77,350,437.13Z" style="fill:#efd7d0"/><g id="tetons"><circle cx="247.37" cy="526.85" r="10" style="fill:#dfb4ad"/><circle cx="361.64" cy="526.85" r="10" style="fill:#dfb4ad"/></g><g id="contour"><path d="M194.23,537.54a2.77,2.77,0,0,0-2.77,2.79l-1,59.59h5.43l1-59.49v0A2.79,2.79,0,0,0,194.23,537.54Z" style="fill:#001e49"/><path d="M446.74,520.19c-16.56-52.27-49-81.8-93.85-85.57l.33-38.82c1.72-1.12,3.43-2.21,5.11-3.29,15.53-9.95,30.2-19.35,48.34-41.12,8.46-10.15,11.42-30.42,13.17-53.82a33.46,33.46,0,0,0,20.85-9.6c10.71-10.66,13.2-27.47,13-34.87C452.77,214.56,431,208.86,425,208c-.69-44.46-12.22-79.28-34.45-103.76-30-33-69.5-35.59-80.9-35.59h-3.8c-23.59-.09-63.1-.28-92.59,30-22.46,23.06-35.1,60.08-37.75,110.3-7.66,1.23-26.63,7.86-29.35,43.3-.56,7.38,1,24.3,11.18,35.51a33.41,33.41,0,0,0,20.59,10.71c2.05,25.1,5.39,45,11.31,52.79,13.63,17.94,34.42,29.22,54.53,40.12l1.5.81.48,41.63v.53c-8.22.14-32.33,2.47-55.55,23.5-30.42,27.56-46.76,75.33-48.56,142l5.52-2.65c2.13-63.55,17.79-109,46.57-135.19,21.72-19.74,44.71-22,52.09-22.18l.17,14.68a2.72,2.72,0,0,0,2.72,2.69h0a2.71,2.71,0,0,0,2.69-2.74l-.24-20.64.17-38.28c4.08,2.25,8.15,4.54,12.07,6.89.77.46,1.62,1,2.59,1.7,1.7,1.16,3.73,2.53,6.15,3.9,13.14,22.55,38.85,46.4,75.19,36.63l-.07,9.8a2.72,2.72,0,0,0,2.7,2.74h0a2.72,2.72,0,0,0,2.72-2.7l.12-14.41c95.6,8.4,100,137,100.09,157.11l5.42,2.8C458.36,599.61,459.36,560,446.74,520.19ZM421.2,275.92c.53-9.24,1.07-18.74,1.85-27.85l10.32-1.91a3,3,0,1,0-1.1-5.95l-8.66,1.6q1.33-14.4,1.41-27.71c5.32.88,21.84,6.26,22.64,39.14.16,6.51-2,21.24-11.23,30.45a27.46,27.46,0,0,1-16.16,7.74C420.61,286.35,420.9,281.16,421.2,275.92Zm-259.39,7.8c-8.75-9.68-10.13-24.5-9.63-31,2.3-30,16.55-36.33,23-37.65q-.48,13-.08,27.1l-6.92-1.66a3,3,0,1,0-1.41,5.88l8.51,2c.5,15.23,1.14,30.17,2.12,43.83A27.36,27.36,0,0,1,161.81,283.72Zm84.8,102.44c-19.56-10.61-39.78-21.57-52.63-38.49-10-13.19-12-76.71-12.82-103.83v-.28c-2.05-66.49,10.19-113.84,36.38-140.73,27.72-28.47,65.64-28.32,88.29-28.21h3.82c10.78,0,48.14,2.43,76.49,33.64,26.62,29.33,37.19,74.56,31.41,134.44-1,10.65-1.67,21.94-2.29,32.87-1.69,29.65-3.44,60.32-13.16,72-17.56,21.07-31.19,29.8-47,39.92-3.8,2.44-7.7,4.93-11.75,7.67-1.18.79-2.33,1.67-3.55,2.58-6.43,4.86-14.44,10.91-36.85,11.47-18.19.44-27.84-6.1-33.6-10-1.07-.73-2-1.38-2.87-1.88C260,393.43,253.2,389.73,246.61,386.16Z" style="fill:#001e49"/><path d="M407.16,536.47h0a2.79,2.79,0,0,0-2.7,2.84v0l.49,60.58h5.44l-.49-60.63A2.78,2.78,0,0,0,407.16,536.47Z" style="fill:#001e49"/></g></g></g></svg>