<svg xmlns="http://www.w3.org/2000/svg" viewBox="0 0 600 600"><g id="Visages"><g id="visage-carre-large"><path id="color" d="M350,437.13l.24-27.75c16.54-6.49,26.86-16.77,39.39-29.54,11.5-11.73,23.5-49.72,30.94-86.11,25.67-1.53,32-29.37,32.45-38.19,2.23-41.4-23.5-43.63-23.5-43.63l-.93,4.84c-1.48-121-79.5-144.94-118.43-144.94-39.65,0-131-5.46-138.33,146.16l-1.09-5.69s-25.73,2.23-23.49,43.63c.46,8.59,6.45,35.25,30.49,38,7.31,33.79,19.52,72.88,27.76,82.36,10.47,12,23.73,24.08,43.08,31.91l-.13,28.92S148.94,430,144.35,599.92H455.63S460.22,443.77,350,437.13Z" style="fill:#efd7d0"/><g id="tetons"><circle cx="247.37" cy="526.85" r="10" style="fill:#dfb4ad"/><circle cx="361.64" cy="526.85" r="10" style="fill:#dfb4ad"/></g><g id="contour"><path d="M446.74,520.19c-16.55-52.25-48.95-81.77-93.8-85.57l.27-23c16.35-6.82,26.58-17.23,38.66-29.56s23.91-50.08,31.34-85.68a32.26,32.26,0,0,0,16.31-7.4c11.34-9.65,15.08-26,15.47-33.26,1.92-35.45-16.27-44.13-23.41-46.17-1.64-44-13.73-78.66-36.15-103.35-31.61-34.81-73.26-37.51-85.27-37.51h-4c-24.87-.1-66.51-.29-97.59,31.63-22.61,23.22-35.79,59.86-39.36,109.23-5.52,1.16-27,8.17-24.94,46.55.39,7.28,4.13,23.61,15.47,33.26a32.12,32.12,0,0,0,15.41,7.24c7.43,33.64,19.46,72,28,81.79,9.83,11.31,22.78,23.57,42.13,31.88l.4,24.13c-8.29.15-32.32,2.54-55.46,23.5-30.42,27.56-46.76,75.33-48.56,142l5.52-2.65c2.13-63.55,17.79-109,46.57-135.19,21.66-19.68,44.56-22,52-22.17l.24,14.67a2.72,2.72,0,0,0,2.72,2.69h0a2.71,2.71,0,0,0,2.69-2.74l-.28-17.07a2,2,0,0,0,0-.24l.2-24.51a126.48,126.48,0,0,0,29.16,6.58c14.68,18.07,36.69,33.54,66.82,25.44l-.07,9.8a2.72,2.72,0,0,0,2.7,2.74h0a2.72,2.72,0,0,0,2.72-2.7l.16-14.41c95.56,8.44,100,137,100.05,157.11l5.42,2.8C458.36,599.61,459.36,560,446.74,520.19ZM430.56,247.94l6-.63a3,3,0,1,0-.63-5.92l-4.9.51q.92-13.54.72-26.13c6.34,2.33,18.87,10.62,17.3,39.61-.35,6.4-3.59,20.71-13.38,29A26.14,26.14,0,0,1,424.49,290c2.64-13.51,4.6-26.47,5.65-37.33C430.29,251.1,430.43,249.52,430.56,247.94ZM163.61,284.79c-9.8-8.33-13-22.64-13.39-29-1.68-31.17,12.92-38.41,18.6-40q-.7,12.69-.58,26.46l-3.9-.41a3,3,0,1,0-.62,5.92l4.61.49c0,1.67.07,3.33.12,5,.27,9,2.29,22.29,5.32,37A26.07,26.07,0,0,1,163.61,284.79Zm44.26,89.45C196.76,361.46,175.7,284.41,174.73,253c-2.16-70.08,10.74-120,38.34-148.33,27.45-28.18,64.38-29.74,88.55-29.74h4.51l4,0c11.36,0,50.74,2.55,80.61,35.45C418.84,141.32,430,189,423.88,252.1c-4.29,44.38-21.52,110.27-36.5,125.54-21.4,21.82-35.54,36.24-88.93,36.24C248.72,413.88,223.92,392.69,207.87,374.24Z" style="fill:#001e49"/><path d="M194.23,537.54a2.77,2.77,0,0,0-2.77,2.79l-1,59.59h5.43l1-59.49v0A2.79,2.79,0,0,0,194.23,537.54Z" style="fill:#001e49"/><path d="M407.16,536.47h0a2.79,2.79,0,0,0-2.7,2.84v0l.49,60.58h5.44l-.49-60.63A2.78,2.78,0,0,0,407.16,536.47Z" style="fill:#001e49"/></g></g></g></svg>