<svg xmlns="http://www.w3.org/2000/svg" viewBox="0 0 600 600"><g id="Visages"><g id="visage-allonge"><path id="color" d="M350,437.13l.32-35.79c30.73-18.25,57-53.95,70.16-108,27.47-.41,34.12-29.69,34.61-38.83,2.27-42-23.84-44.27-23.84-44.27l-2,10.33C430.33,96.08,351.54,71.75,312.54,71.75c-40,0-140.63-4.5-141.84,154.23l-2.95-15.39s-26.11,2.27-23.84,44.27c.5,9.3,7.38,39.44,36.06,38.81,12.63,38.77,37.73,79.79,68.66,103l-.18,40.42S148.94,430,144.35,599.92H455.63S460.22,443.77,350,437.13Z" style="fill:#efd7d0"/><g id="tetons"><circle cx="247.37" cy="526.85" r="10" style="fill:#dfb4ad"/><circle cx="361.64" cy="526.85" r="10" style="fill:#dfb4ad"/></g><g id="contour"><path d="M194.23,537.54a2.77,2.77,0,0,0-2.77,2.79l-1,59.59h5.43l1-59.49v0A2.79,2.79,0,0,0,194.23,537.54Z" style="fill:#001e49"/><path d="M446.74,520.19c-16.56-52.26-49-81.79-93.83-85.57l.3-31.37c29.29-17.71,56.12-51.55,69.85-107a33.11,33.11,0,0,0,19.35-7.83c11.5-9.79,15.3-26.36,15.7-33.76,2.19-40.54-21.54-46.58-25.91-47.34-1.64-43.28-13.56-77.38-35.62-101.67-31.15-34.31-72.2-37-84-37h-3.21c-24.8-.05-70.92-.2-103.64,34.07-22.05,23.1-34.59,58.28-37.46,104.89a2.67,2.67,0,0,0-.75,0c-.29,0-29,3-26.59,47.44.4,7.4,4.19,24,15.7,33.75a33.28,33.28,0,0,0,21.06,7.93c12.85,38.23,37.47,77.8,67.6,101.19,0,.05,0,.1,0,.15l.48,36.33c-8.24.14-32.33,2.49-55.53,23.5-30.42,27.56-46.76,75.33-48.56,142l5.52-2.65c2.13-63.55,17.79-109,46.57-135.19,21.7-19.72,44.66-22,52.07-22.18l.19,14.68a2.72,2.72,0,0,0,2.72,2.69h0a2.71,2.71,0,0,0,2.69-2.74l-.25-18.69.21-33.4a100.47,100.47,0,0,0,24.22,12.4c8.08,22.9,38.9,38.72,71.75,29.89l-.07,9.8a2.72,2.72,0,0,0,2.7,2.74h0a2.72,2.72,0,0,0,2.72-2.7l.13-14.41c95.59,8.41,100,137,100.08,157.11l5.42,2.8C458.36,599.61,459.36,560,446.74,520.19ZM431.06,246.91l7.32-.77a3,3,0,0,0-.63-6l-6.2.66q1-14.19.81-27.3c5,1.17,21.51,7.57,19.71,40.84-.35,6.49-3.64,21-13.58,29.47a26.9,26.9,0,0,1-14,6.17A329,329,0,0,0,430.79,250C430.89,249,431,248,431.06,246.91ZM160.51,284.17c-9.94-8.46-13.23-23-13.58-29.47-2-37.59,19.29-40.89,21-41.09q-.57,13.2-.14,27.58l-6.53-.69a3,3,0,0,0-.63,6l7.39.77c0,.87.06,1.72.11,2.59a170.68,170.68,0,0,0,7.54,40.61A27.1,27.1,0,0,1,160.51,284.17Zm53.84,71.55c-22.75-32.46-38.46-74.12-40-106.15-3.26-66.24,8.8-114.22,35.86-142.57,30.88-32.34,73.63-32.2,99.14-32.15h3.23c11.2,0,50,2.52,79.45,34.94,27.66,30.46,38.64,77.44,32.63,139.64-11.51,119.11-74,162.38-124,163.25h-1.12C260.18,412.69,229.33,377.08,214.35,355.72Z" style="fill:#001e49"/><path d="M407.16,536.47h0a2.79,2.79,0,0,0-2.7,2.84v0l.49,60.58h5.44l-.49-60.63A2.78,2.78,0,0,0,407.16,536.47Z" style="fill:#001e49"/></g></g></g></svg>