<svg xmlns="http://www.w3.org/2000/svg" viewBox="0 0 600 600"><g id="Visages"><g id="visage-carre-long"><path id="color" d="M350,437.13l.28-31.61c19.41-13.45,36.56-27.89,55.63-54.91,6.73-9.53,11.67-31.63,15.42-57.4,23.77-3.28,29.74-29.86,30.2-38.49,1.92-35.51-16.45-42.62-22.17-44,.86-18.38.73-33.89.73-57,0-40.65-87.41-82.06-126.06-82-41.66,0-132.11,31.09-133.84,82.89-.52,15.58-.39,35.18.76,56.26-2.61.35-25.74,4.6-23.6,44.24.48,8.93,6.85,37.07,32.74,38.74,4,24.85,9.34,49.73,16,58.49,14.64,19.27,32.27,35.22,52.52,49.05l-.16,35.75S148.94,430,144.35,599.92H455.63S460.22,443.77,350,437.13Z" style="fill:#efd7d0"/><g id="tetons"><circle cx="247.37" cy="526.85" r="10" style="fill:#dfb4ad"/><circle cx="361.64" cy="526.85" r="10" style="fill:#dfb4ad"/></g><g id="contour"><path d="M194.23,537.54a2.77,2.77,0,0,0-2.77,2.79l-1,59.59h5.43l1-59.49v0A2.79,2.79,0,0,0,194.23,537.54Z" style="fill:#001e49"/><path d="M407.16,536.47h0a2.79,2.79,0,0,0-2.7,2.84v0l.49,60.58h5.44l-.49-60.63A2.78,2.78,0,0,0,407.16,536.47Z" style="fill:#001e49"/><path d="M446.74,520.19c-16.55-52.26-49-81.78-93.82-85.57l.29-27.41c20.73-14.5,37-29,55.21-54.83,6.13-8.68,11.23-27,15.62-56.55a32.54,32.54,0,0,0,14.81-7.19c11.51-9.79,15.3-26.36,15.7-33.75,1.8-33.37-13.95-43.36-22-46.28.65-15.18.64-28.69.63-46.76v-8.11c0-26.08-31.37-48.11-50.07-58.92-27.08-15.66-58.82-26.17-79-26.17H304c-38.9,0-135,30.15-136.89,85.85-.32,9.36-.66,29,.61,54-7.46,2.25-25.32,11.34-23.41,46.74.4,7.4,4.19,24,15.7,33.76a32.81,32.81,0,0,0,17.4,7.62c5,30.87,10.37,49.84,16.22,57.55,13.79,18.14,30.78,34.14,51.61,48.6l.44,31.58c-8.25.14-32.33,2.5-55.51,23.5-30.42,27.56-46.76,75.33-48.56,142l5.52-2.65c2.13-63.55,17.79-109,46.57-135.19,21.69-19.71,44.64-22,52.06-22.18l.2,14.68a2.72,2.72,0,0,0,2.72,2.69h0a2.71,2.71,0,0,0,2.69-2.74l-.25-18,.2-29.56q5.12,3.36,10.52,6.6c4.27,2.56,10.14,4.24,18.17,5.12,14.68,18.32,36.84,34.21,67.29,26l-.07,9.8a2.72,2.72,0,0,0,2.7,2.74h0a2.72,2.72,0,0,0,2.72-2.7l.15-14.41c95.57,8.42,100,137,100.06,157.11l5.42,2.8C458.36,599.61,459.36,560,446.74,520.19ZM429.79,246.91l5-.53a3,3,0,1,0-.63-6l-3.84.4c.86-9.74,1.46-18.12,1.88-25.89,6.69,3,17.77,12.1,16.28,39.68-.35,6.5-3.64,21-13.58,29.47a26.41,26.41,0,0,1-10,5.35c1.6-11.57,3.1-24.69,4.53-39.47C429.6,248.89,429.69,247.9,429.79,246.91ZM164,284.41c-9.94-8.46-13.23-23-13.58-29.47-1.6-29.68,11.35-38,17.71-40.25.5,8.41,1.19,17.34,2.12,26.63l-5.51-.58a3,3,0,0,0-.63,6l6.79.71c.11,1.06.23,2.11.35,3.17q2.55,22.2,5.23,39.7A26.72,26.72,0,0,1,164,284.41Zm34.59,66.07c-5.2-6.84-13.11-29.84-21.25-100.54a674.65,674.65,0,0,1-4-95.23C174.91,105,264.9,74.81,304,74.78h0C323,74.78,354.2,85.2,380,100.13c29.87,17.27,47,36.81,47,53.61v8.11c0,31.92,0,49.5-3.64,87.47-5.36,55.51-11.9,88.06-20,99.52-19.33,27.37-36.39,41.71-59.34,57.21-7.11,4.81-13.81,6.41-41.85,7.12-25,.62-33.17-2.5-37.17-4.91C237.1,391.5,215.34,372.59,198.54,350.48Z" style="fill:#001e49"/></g></g></g></svg>