<svg xmlns="http://www.w3.org/2000/svg" viewBox="0 0 600 600"><g id="Visages"><g id="visage-pointu"><path id="color" d="M350,437.13l.32-36.67C379,381.86,411.18,348.39,424.1,293c24.44-2.79,30.52-29.87,31-38.6,2.27-42-23.84-44.26-23.84-44.26l-1.52,7.91C424.07,95.4,352.08,71.8,313,71.8c-39.88,0-132.62-4.62-142.31,149.06l-2-10.34s-26.11,2.27-23.84,44.27c.46,8.56,6.32,34.76,29.6,38.41,11.83,52.79,44.54,86.19,74.11,105.4l-.17,38.53S148.94,430,144.35,599.92H455.63S460.22,443.77,350,437.13Z" style="fill:#efd7d0"/><g id="tetons"><circle cx="247.37" cy="526.85" r="10" style="fill:#dfb4ad"/><circle cx="361.64" cy="526.85" r="10" style="fill:#dfb4ad"/></g><g id="contour"><path d="M194.23,537.54a2.77,2.77,0,0,0-2.77,2.79l-1,59.59h5.43l1-59.49v0A2.79,2.79,0,0,0,194.23,537.54Z" style="fill:#001e49"/><path d="M446.74,520.19c-16.56-52.27-49-81.79-93.84-85.57l.3-32.37c28.55-18.55,60.36-51.44,73.58-106.56a32.63,32.63,0,0,0,15.63-7.36c11.5-9.79,15.3-26.36,15.7-33.75C460.3,214,436.58,208,432.2,207.23c-3.65-45.46-17.09-80.61-40.17-104.78C362.91,72,327.09,68.66,313,68.66h-3.39c-25.13-.07-67.18-.2-99.38,32.15-22.83,22.94-36.75,58.74-41.58,106.71h-.21c-.29,0-29,3-26.59,47.44.4,7.4,4.19,24,15.7,33.75A32.43,32.43,0,0,0,172,295.81c12.18,51,43.86,84.46,73.29,104.24l.46,34.32c-8.24.14-32.33,2.5-55.52,23.5-30.42,27.56-46.76,75.33-48.56,142l5.52-2.65c2.13-63.55,17.79-109,46.57-135.19,21.7-19.72,44.65-22,52.07-22.18l.19,14.68a2.72,2.72,0,0,0,2.72,2.69h0a2.71,2.71,0,0,0,2.69-2.74l-.25-18.54.14-32a167,167,0,0,0,28.81,14.3c15.48,17.79,36.66,34.62,67.23,26.4l-.07,9.8a2.72,2.72,0,0,0,2.7,2.74h0a2.72,2.72,0,0,0,2.72-2.7l.13-14.41c95.59,8.41,100,137,100.08,157.11l5.42,2.8C458.36,599.61,459.36,560,446.74,520.19ZM161.51,284.1c-9.94-8.46-13.23-23-13.58-29.47-1.87-34.49,15.93-40.11,20.19-40.95q-1.08,13-1.29,27.23l-4.58-.48a3,3,0,0,0-.63,6l5.15.54c0,1.68,0,3.36,0,5.06a197.21,197.21,0,0,0,3.73,37.1A26.63,26.63,0,0,1,161.51,284.1ZM432.8,252.17c.08-1.86.15-3.7.21-5.53l5.37-.57a3,3,0,1,0-.63-6l-4.58.48q.25-14.07-.53-27.06c5.31,1.34,21.2,8.09,19.43,40.77-.35,6.5-3.64,21-13.58,29.47a26.44,26.44,0,0,1-10.24,5.42A237.68,237.68,0,0,0,432.8,252.17ZM173.06,252c-.55-69.06,13.47-118.44,41.66-146.78,28.81-28.94,66.68-30.3,91.11-30.3H313c13.24,0,47,3.1,74.45,31.84,29,30.33,42.09,79.15,39,145.1-3.17,68.38-33.45,109-58.29,131-29.48,26.15-59.37,34.15-67.13,34.15H301C278.64,416.83,174,373.13,173.06,252Z" style="fill:#001e49"/><path d="M407.16,536.47h0a2.79,2.79,0,0,0-2.7,2.84v0l.49,60.58h5.44l-.49-60.63A2.78,2.78,0,0,0,407.16,536.47Z" style="fill:#001e49"/></g></g></g></svg>