<svg xmlns="http://www.w3.org/2000/svg" viewBox="0 0 600 600"><g id="Visages"><g id="visage-rond"><path id="color" d="M350,437.13l.34-38.28c39-20.15,71.51-60.93,74.88-106.26,21-5.18,26.43-29.65,26.87-37.87,2.27-42-23.84-44.26-23.84-44.26l-3.05,15.9C417.64,120.28,371.58,74.9,310.29,72c-73.08-3.48-129,26-135,157.6l-3.59-18.75s-26.11,2.27-23.84,44.27c.45,8.39,6.09,33.71,28.21,38.16,4.4,44.05,33,86.12,72.49,106.35l-.16,37.52S148.94,430,144.35,599.92H455.63S460.22,443.77,350,437.13Z" style="fill:#efd7d0"/><g id="tetons"><circle cx="247.37" cy="526.85" r="10" style="fill:#dfb4ad"/><circle cx="361.64" cy="526.85" r="10" style="fill:#dfb4ad"/></g><g id="contour"><path d="M407.16,536.47h0a2.79,2.79,0,0,0-2.7,2.84v0l.49,60.58h5.44l-.49-60.63A2.78,2.78,0,0,0,407.16,536.47Z" style="fill:#001e49"/><path d="M194.23,537.54a2.77,2.77,0,0,0-2.77,2.79l-1,59.59h5.43l1-59.49v0A2.79,2.79,0,0,0,194.23,537.54Z" style="fill:#001e49"/><path d="M446.74,520.19c-16.56-52.28-49-81.82-93.89-85.58l.12-17.43.23-16.33c39.6-21.2,71.09-63.1,75-106.65a32.79,32.79,0,0,0,9.24-5.56c11.5-9.79,15.3-26.36,15.7-33.75,2.4-44.41-26.3-47.42-26.6-47.45h0c-5.52-45.29-19-80-40.36-103.74-19.47-21.61-44.94-33.32-75.7-34.78-43-2-73.4,7.41-95.71,29.76-22.54,22.58-36.1,58.59-40.95,109.14h-.3c-.29,0-29,3-26.59,47.44.4,7.4,4.19,24,15.7,33.76a32.62,32.62,0,0,0,10.65,6.07c5,45.31,34,85.62,72,106l.46,33.27c-8.25.14-32.33,2.5-55.52,23.5-30.42,27.56-46.76,75.33-48.56,142l5.52-2.65c2.13-63.55,17.79-109,46.57-135.19,21.7-19.72,44.65-22,52.06-22.18l.2,14.68a2.72,2.72,0,0,0,2.72,2.69h0a2.71,2.71,0,0,0,2.69-2.74l-.25-18.22.21-32.06a118.09,118.09,0,0,0,24.29,8.36c15,20.25,37.92,41.2,71.68,32.12l-.07,9.8a2.72,2.72,0,0,0,2.7,2.74h0a2.72,2.72,0,0,0,2.72-2.7l.1-14.41c95.62,8.38,100,137,100.11,157.11l5.42,2.8C458.36,599.61,459.36,560,446.74,520.19Zm.33-265.63c-.35,6.5-3.64,21-13.58,29.47a26.87,26.87,0,0,1-4.9,3.31q1.08-21.12.65-40.31l6.14-.65a3,3,0,1,0-.63-6l-5.69.6q-.51-14.21-1.86-27.29C432,214.75,448.89,220.93,447.07,254.56ZM171.89,241.44l-6.64-.7a3,3,0,0,0-.63,6l7.17.75q-.21,18.9.83,39.92c0,.31,0,.61,0,.91a26.38,26.38,0,0,1-6.16-3.93c-9.94-8.46-13.23-23-13.58-29.47-1.88-34.8,16.26-40.21,20.31-41Q172.19,227.07,171.89,241.44Zm6.85,45.69C174.2,195,187.39,134.74,219.07,103c21-21,49.95-29.93,91.08-28,29.06,1.39,53.1,12.41,71.44,32.77,31.87,35.37,45.56,96.86,40.7,182.75C418.58,356.18,354.06,408.14,301,409.05,239.08,410.2,182,353.15,178.74,287.13Z" style="fill:#001e49"/></g></g></g></svg>