<svg xmlns="http://www.w3.org/2000/svg" viewBox="0 0 600 600"><g id="corps"><g id="corps-nu"><path id="color" d="M248.7,379.72l-.25,57.41S148.94,430,144.35,599.92h43.37l1-59.71-1,59.71H413.11l-.51-60.73.51,60.73h42.52S460.22,443.77,350,437.13l.51-57.41Z" style="fill:#efd7d0"/><path id="contours" d="M141.63,599.85m316.72.15-5.42-2.8c-.09-20.37-4.57-151.42-103.1-157.35a2.72,2.72,0,0,1-2.55-2.74l.49-54.67H251.41l-.24,54.71a2.73,2.73,0,0,1-.87,2,2.76,2.76,0,0,1-2,.73c-.29,0-28.34-1.65-54.54,22.16-28.78,26.16-44.44,71.64-46.57,135.19l-5.52,2.65c1.8-66.65,18.14-114.42,48.56-142,23.22-21,47.33-23.36,55.55-23.5l.24-54.66A2.72,2.72,0,0,1,248.7,377H350.51a2.71,2.71,0,0,1,1.93.81,2.74,2.74,0,0,1,.79,1.94l-.49,54.85c44.95,3.72,77.42,33.26,94,85.59C459.36,560,458.36,599.61,458.35,600Zm-48,2.72-.49-60.58v0a2.79,2.79,0,0,1,2.7-2.84h0a2.78,2.78,0,0,1,2.72,2.82l.49,60.63Zm-214.44,0,1-59.59a2.72,2.72,0,1,1,5.44,0v0l-1,59.49Z" style="fill:#001e49"/><g id="ombres"><path d="M248,377h0a2.72,2.72,0,0,0-2.69,2.75l.74,74.76a2.72,2.72,0,0,0,2.72,2.69h0a2.71,2.71,0,0,0,2.69-2.74l-.74-74.76A2.73,2.73,0,0,0,248,377Z" style="fill:#001e49"/><path d="M350.53,378a2.71,2.71,0,0,1,2.7,2.73l-.51,73.75a2.72,2.72,0,0,1-2.72,2.7h0a2.72,2.72,0,0,1-2.7-2.74l.07-9.8c-62.1,16.7-89.72-66.72-89.72-66.72S350.53,376.31,350.53,378Z" style="fill:#001e49"/></g><g id="tetons"><circle cx="247.37" cy="526.85" r="10" style="fill:#dfb4ad"/><circle cx="361.64" cy="526.85" r="10" style="fill:#dfb4ad"/></g></g></g></svg>