<svg xmlns="http://www.w3.org/2000/svg" viewBox="0 0 600 600"><g id="Cheveux-2" data-name="Cheveux"><g id="cheveux-court-9"><path id="color" d="M419.83,153.47S385,108.71,370.45,101.18C358.53,95,329.3,88.1,325.77,104.74s-8.23,79.63-121.09,51.11c8.23-8.32,27-30.9,27-30.9-12.93,7.13-41.15,21.39-52.91,39.22,7.06-33.28,28.22-92.71,109.34-93.89-5.88-8.32-14.11-19-8.23-17.83s12.94,10.7,17.64,8.32,21.16-9.51,18.81-5.94-10.58,14.26-7.06,14.26C323.42,67.9,405.72,65.52,419.83,153.47Z" style="fill:#c4a97c"/><path id="contour" d="M178.81,166.67a2.49,2.49,0,0,1-2.44-3c5.21-24.61,14.45-44.82,27.43-60.08,18.9-22.2,45.66-34.18,79.6-35.66-6.86-9.64-9.25-13.66-7.43-16.47.5-.77,1.74-2,4.45-1.44,3,.61,6,2.79,8.82,4.89,2.47,1.82,5.86,4.33,7.19,3.65,2.24-1.14,6.8-3.19,10.84-4.76,7.86-3.05,9.79-2.9,11.11-1.41a3,3,0,0,1,.08,3.83c-.42.63-1,1.46-1.68,2.42-1.16,1.66-3.77,5.38-5.07,7.8,9.27-.5,31.38-.42,53.84,9.13C397.11,89,416.2,115.06,422.3,153.08a2.5,2.5,0,0,1-4.44,1.93c-.35-.44-34.71-44.42-48.56-51.61-9.17-4.76-26.69-9.09-35.73-4.81a9.09,9.09,0,0,0-5.35,6.67c-.19.92-.39,2-.61,3.17-2,10.67-6.14,32.87-26.92,46.17s-53.39,14.6-96.62,3.67a2.5,2.5,0,0,1-1.17-4.18c4.47-4.52,12.2-13.41,18.23-20.48-13.91,7.81-31.63,18.9-40.23,31.94A2.49,2.49,0,0,1,178.81,166.67Zm30.66-12.22c39.74,9.47,69.51,8.1,88.52-4.06s22.7-32.13,24.7-42.88c.23-1.23.44-2.33.64-3.29a14.13,14.13,0,0,1,8.1-10.15c6.38-3,14.92-2.4,21-1.34A71.62,71.62,0,0,1,371.6,99c11.09,5.76,32.92,31.56,43.78,44.94-7.36-30.83-24.74-52.24-51.79-63.75-24.52-10.43-49.34-9-54.06-8.57a3.25,3.25,0,0,1-3.2-1.71c-1.18-2.28.29-5.33,5.1-12.31A132.2,132.2,0,0,0,298.69,63c-4.09,2.07-8.32-1.06-12.42-4.09a37.86,37.86,0,0,0-5-3.35,124.85,124.85,0,0,0,7.06,10.6c.65.91,1.29,1.8,1.9,2.67a2.5,2.5,0,0,1-2,4c-34.68.5-61.79,12-80.58,34-10.55,12.39-18.52,28.27-23.78,47.3,12.42-12.72,31-22.85,43-29.36l3.64-2a2.5,2.5,0,0,1,3.13,3.79C233,127.37,218.43,144.79,209.47,154.45Z" style="fill:#001e49"/></g></g></svg>