<svg xmlns="http://www.w3.org/2000/svg" viewBox="0 0 600 600"><g id="Cheveux-2" data-name="Cheveux"><g id="frange-style-1"><path id="color" d="M407,95.65,377.6,70.5l-89-16.58L233.44,70.5,200.68,97.71s-26.81,50.54-13.4,50.54,74.25-2.06,74.25-2.06l12.38-24.75,12.37,22.68s119.64,2.07,132,5.16C424.48,134.84,407,95.65,407,95.65" style="fill:#c4a97c"/><path id="contour" d="M418.3,151.78a2.48,2.48,0,0,1-.61-.07c-9.57-2.4-90.17-4.37-131.45-5.09a2.48,2.48,0,0,1-2.15-1.3L274,126.83l-10.23,20.48a2.52,2.52,0,0,1-2.15,1.38c-.61,0-61.05,2.06-74.34,2.06a5.73,5.73,0,0,1-5.12-2.76c-1.65-2.75-2.81-8.84,6.12-29.94,4.72-11.16,10.14-21.41,10.2-21.51a2.5,2.5,0,1,1,4.41,2.35c-13,24.56-18.59,42.94-16.44,46.52.1.17.2.34.83.34,12,0,63.27-1.7,72.68-2l11.71-23.42a2.48,2.48,0,0,1,2.19-1.38h.05a2.48,2.48,0,0,1,2.19,1.3l11.68,21.41c13.65.24,109.49,2,128.82,4.79,3-12.21-7.43-39.69-11.93-49.77a2.5,2.5,0,1,1,4.56-2,216.53,216.53,0,0,1,8.1,21.68c5,16,6.07,27.41,3.26,34A2.49,2.49,0,0,1,418.3,151.78Z" style="fill:#001e49"/></g></g></svg>