<svg xmlns="http://www.w3.org/2000/svg" viewBox="0 0 600 600"><g id="Cheveux-2" data-name="Cheveux"><g id="cheveux-court-7"><g id="pattes"><path id="patte-gauche" d="M174.29,258.75l-4.18-49.47s22.81-20.57,26-34.06c2.89,16.71,8,27.31,1.93,34.38S177.5,236.26,174.29,258.75Z" style="fill:#001e49;stroke:#001e49;stroke-linecap:round;stroke-linejoin:round;stroke-width:5px;opacity:0.25"/><path id="patte-droite" d="M425.08,258.75l4.18-49.47s-22.81-20.57-26-34.06c-2.9,16.71-8,27.31-1.93,34.38S421.87,236.26,425.08,258.75Z" style="fill:#001e49;stroke:#001e49;stroke-linecap:round;stroke-linejoin:round;stroke-width:5px;opacity:0.25"/></g><path id="color" d="M170.11,209.28s-9-48.84,0-66.83,51.4-66.82,87.38-75.81,55.26-12.85,87.38,3.85,61.68,38.55,73.25,55.26,19.27,34.69,11.56,80.95c-14.13-9-26.58-23.5-26-35.33,1.61-33.73-15.1-46.26-15.1-46.26-16.06,15.74-107,52.36-178.94-1-11.56,10.28-11.19,27.34-13.49,51.08C195.17,185.18,184.24,193.85,170.11,209.28Z" style="fill:#c4a97c"/><path id="contour" d="M170.11,211.78a2.74,2.74,0,0,1-.69-.1,2.5,2.5,0,0,1-1.77-2c-.37-2-9-49.87.22-68.39,9.1-18.2,51.56-67.76,89-77.13,36.09-9,56.45-12.94,89.15,4.07,33.54,17.44,62.65,39.44,74.14,56.05,10.95,15.81,20.1,34,12,82.79a2.5,2.5,0,0,1-3.81,1.69c-14-8.9-27.82-24-27.18-37.56,1.24-25.87-8.75-38.77-12.62-42.76-12.87,10.73-49.3,26-91.31,26-28.42,0-59.4-7-87.38-27.09-7.84,8.21-8.91,20.93-10.36,38.18-.26,3.15-.54,6.45-.87,9.88-.83,8.56-7.88,15.87-17.64,26-2.73,2.84-5.83,6-9,9.53A2.48,2.48,0,0,1,170.11,211.78ZM302.62,61.45c-13,0-26.62,3.14-44.52,7.61-34.49,8.62-76.49,56-85.75,74.51-6.88,13.76-2.57,47.53-.6,60.28,2-2.11,3.88-4.07,5.63-5.89,9.06-9.38,15.6-16.16,16.26-23,.33-3.41.61-6.68.87-9.82,1.57-18.67,2.81-33.42,13.45-42.89a2.52,2.52,0,0,1,3.15-.14c38.12,28.25,80.1,29.69,108.62,25.92,33-4.36,59.54-17.34,67.08-24.73a2.51,2.51,0,0,1,3.25-.21c.73.54,17.75,13.72,16.1,48.38-.37,7.79,7,20.57,21.67,31,6.16-40,.57-57.47-11.77-75.29-11.07-16-39.46-37.36-72.34-54.46C328.12,64.6,315.67,61.45,302.62,61.45Z" style="fill:#001e49"/></g></g></svg>