<svg xmlns="http://www.w3.org/2000/svg" viewBox="0 0 600 600"><g id="Cheveux-2" data-name="Cheveux"><g id="cheveux-court-6"><path id="color" d="M174.89,230.55c-1.37,9.39,1.83,19.2-9.13,18.37s-34.78-19.1-42-40.92c-6.62-20-5.47-52.61,39.25-52.61,10-28.39,48.42-100.62,70.29-118.58,20.08-16.49,49.29-33.4,91.28,8.35s61.12,53.32,73,50.1c10-2.71,19.17-19.83,27.39-39.24,4.87-11.53,20.08-16.08,25.56-1.67,5.69,15,17.34,81,1.82,108.56,12.78.83,27.84,6.89,32.86,15.86,4.65,8.31,8.22,38.42-32.86,62.63s-26-3.22-27.84-17.12c-1.37-10.43-12.18-65-58.88-82.25-13.53-5,3.85,42.09-18.25,38.41C278.34,169,227.83,134.51,195,172.93,184.77,184.86,178.46,206.06,174.89,230.55Z" style="fill:#c4a97c"/><path id="contour" d="M487.42,177.55c-5.12-9.16-18.85-15.08-31.08-16.75a2.72,2.72,0,0,0,.23-.77c13.22-30.92,1.2-93.74-3.68-106.57-2.53-6.65-7.37-10.53-13.3-10.64-6.84-.11-13.8,4.9-16.9,12.22C416.37,70,406.81,90.19,397,92.85,385.45,96,364.34,81.17,326.35,43.39,307,24.1,288.7,15.36,270.56,16.65,254.41,17.79,241.32,27,231.72,34.88c-21.75,17.86-59.31,87.84-70.46,118-17.11.32-29.37,5.44-36.44,15.22C114.09,183,119.49,203,121.4,208.78c4.56,13.81,14.67,24.35,20.29,29.41,8.55,7.68,17.7,12.75,23.88,13.22,3.55.27,6.18-.42,8.06-2.11,3-2.74,3.17-7.23,3.3-12a57.32,57.32,0,0,1,.43-6.4c3.92-26.84,10.48-45.8,19.51-56.36,22.15-25.88,52.15-17.28,93.67-5.37,16.87,4.84,36,10.32,56.46,13.73,4,.66,7.3-.07,9.79-2.18,5.51-4.68,5.49-14.88,5.47-23.88,0-4.36,0-11.67,1.38-12.66.09-.06.48-.07,1.16.18,48.56,17.91,56.93,77.7,57.26,80.24.39,2.94-.09,6.79-.56,10.52-.9,7.23-1.75,14.06,2.92,17.12a8.45,8.45,0,0,0,4.78,1.28c5.21,0,13-3.21,24.45-10C493.82,219.88,493.75,188.86,487.42,177.55Zm-36.31,61.7c-17.14,10.1-22.36,9.87-23.95,8.82-2.07-1.36-1.34-7.18-.7-12.32.51-4,1-8.22.56-11.79-.35-2.66-9.13-65.34-60.49-84.28a7.84,7.84,0,0,0-2.69-.52,5.19,5.19,0,0,0-3.06.94c-3.55,2.48-3.54,8.78-3.52,16.76,0,7.52,0,16.88-3.71,20.06-1.33,1.13-3.21,1.48-5.73,1.06-20.19-3.36-39.16-8.8-55.91-13.61-41.68-12-74.6-21.4-98.84,6.93-9.66,11.29-16.6,31.1-20.65,58.89a62.33,62.33,0,0,0-.49,7c-.1,3.66-.2,7.11-1.65,8.42-.79.71-2.25,1-4.33.84-9.43-.72-32.72-17.78-39.8-39.21-1.73-5.22-6.62-23.24,2.73-36.16,6.31-8.74,17.8-13.17,34.14-13.17a2.5,2.5,0,0,0,2.36-1.67c9.91-28,48.34-100.09,69.52-117.48C256.48,21,283.8,8.13,322.83,46.93c36.36,36.16,57.13,51.32,71,51.32a17,17,0,0,0,4.45-.57C410,94.5,419.54,75.33,427.3,57c2.29-5.4,7.46-9.24,12.2-9.17,3.89.07,6.9,2.64,8.72,7.41,2.57,6.77,7,26.4,8.71,48.87,1.39,18,1.39,42.44-6.39,57-2,3.71-6.49,11.79-14.47,25.66a2.49,2.49,0,0,0,.92,3.41,2.44,2.44,0,0,0,1.24.34,2.5,2.5,0,0,0,2.17-1.25c6.74-11.7,11-19.31,13.38-23.67,14.54,1.38,25.86,8.34,29.28,14.45C486.65,186.41,491.75,215.29,451.11,239.25Z" style="fill:#001e49"/></g></g></svg>