<svg xmlns="http://www.w3.org/2000/svg" viewBox="0 0 600 600"><g id="Cheveux-2" data-name="Cheveux"><g id="cheveux-court-10"><path id="color" d="M173.2,199.27s24.37-35.3,30.07-44.5c3.9-6.32-3.91-20.45-3.91-20.45,9-4.21,103.73-61.34,213.19,0,0,0-8.42,13.23-4.81,20.45s18.94,39.69,21.34,44.5c2.41-25.26,5.72-75.47-9.92-91.11s-80.88-44.8-114.86-44.8c-31.48,0-106.55,33-117.87,48.71C174.1,129.21,172,178.82,173.2,199.27Z" style="fill:#c4a97c"/><path id="contour" d="M173.2,201.77a2.65,2.65,0,0,1-.68-.09,2.5,2.5,0,0,1-1.82-2.26c-1.19-20.21.61-70.62,13.7-88.81,6.79-9.44,31.53-22.26,52.43-31.1,27.58-11.68,52.81-18.65,67.47-18.65,34.55,0,100.7,29.61,116.63,45.53,11.82,11.82,15.4,43.15,10.64,93.12a2.5,2.5,0,0,1-4.72.88c-1.09-2.18-4.69-9.74-8.86-18.48-4.93-10.34-10.51-22.07-12.49-26-3.27-6.53,1.15-16.17,3.59-20.62-65-35.49-138-35.54-206-.05l-.38.19c2.23,4.65,6.31,14.8,2.67,20.67-5.66,9.16-29.14,43.17-30.14,44.61A2.48,2.48,0,0,1,173.2,201.77ZM304.3,65.86c-30.36,0-104.93,32.49-115.84,47.67-10.28,14.29-13.39,54.59-13,78.09,7.26-10.56,21.57-31.47,25.71-38.17,2.28-3.68-1.23-12.95-4-17.92a2.49,2.49,0,0,1-.19-2,2.46,2.46,0,0,1,1.32-1.49c.53-.25,1.36-.69,2.49-1.28,70.3-36.69,145.94-36.21,213,1.36a2.51,2.51,0,0,1,.89,3.52c-2,3.13-7.11,13.15-4.69,18,2,4,7.6,15.75,12.54,26.11,1.73,3.64,3.42,7.2,4.87,10.22,4.18-53.42-3-73.06-10-80C402,94.52,337.84,65.86,304.3,65.86Z" style="fill:#001e49"/></g></g></svg>