<svg xmlns="http://www.w3.org/2000/svg" viewBox="0 0 600 600"><g id="Cheveux-2" data-name="Cheveux"><g id="cheveux-court-3"><path id="color" d="M170.71,245.5s-8.27-55.55,0-112.27c-7.09-21.28-20.09-41.37-11.82-70.91s28.36-20.09,34.27-16.55,39,15.37,47.28,15.37,13-1.19,14.18-9.46,5.91-16.54,15.36-13,36.64,21,43.73,22.16,8,0,10.64-2.36S337.64,43.7,346.8,50.8s17.73,18,23.64,21.27,52.59,19.2,58.5,53.48,11.37,81.39-3.25,138.56c-6.21-42.1-14.19-113.89-16.4-115.22s-13.74-8.87-16.4-11.08c-4.43,2.66-21.72,13.29-39.89,12.85s-52.73-12.85-62.48-19.5-21.72-9.31-31.91-4.88-40.33,28.37-64.26,23.49C193.9,158.19,175.44,235.75,170.71,245.5Z" style="fill:#c4a97c"/><path id="contour" d="M425.69,266.61h-.13a2.51,2.51,0,0,1-2.35-2.13c-2.37-16.13-5-36.29-7.48-55.78-3.23-25.12-6.88-53.47-8.34-58-2.74-1.71-10.84-7-14.68-9.83-14.43,8.48-27.81,12.63-39.77,12.34-18.5-.45-53.32-12.77-63.83-19.94-9.8-6.68-20.83-8.42-29.51-4.64A102.44,102.44,0,0,0,250,134c-13.14,7.92-34.72,20.94-53.54,18.67-2.61,16.52-19.18,84.93-23.54,93.94a2.5,2.5,0,0,1-4.72-.72c-.09-.56-8.18-56.17-.09-112.41-1.38-4.06-2.94-8-4.59-12.23-6.83-17.32-13.9-35.23-7.08-59.59,3.17-11.29,8.4-18.46,15.55-21.3,9.19-3.66,18.74,1.08,22.42,3.29,6.07,3.64,38.63,15,46,15,8.57,0,10.86-1.44,11.7-7.31,1-6.78,3.85-12,7.91-14.46,2.17-1.28,5.79-2.41,10.81-.53,4.36,1.63,12,5.89,20,10.4,9.25,5.18,19.73,11,23.26,11.64,5.56.92,6.12.42,8.18-1.43l.38-.34c.27-.24.63-.59,1.06-1,4-3.94,14.72-14.42,24.59-6.77a138.16,138.16,0,0,1,12.52,11.53c4.1,4.1,8,8,10.79,9.53.65.35,2,1,3.8,1.74,13.83,6.07,50.56,22.21,56,53.5a381.41,381.41,0,0,1,6.11,61.09,298.1,298.1,0,0,1-9.4,78.52A2.51,2.51,0,0,1,425.69,266.61Zm-32.8-131.3a2.46,2.46,0,0,1,1.6.58c2.48,2.06,13.84,9.51,16.08,10.85,2,1.19,2.67,3.46,10.12,61.32,1.86,14.44,3.76,29.24,5.59,42.48C436.7,201,432.33,160,426.47,126c-4.94-28.64-39.89-44-53-49.78-1.95-.85-3.36-1.47-4.2-1.93-3.45-1.9-7.37-5.83-11.92-10.38a135,135,0,0,0-12-11.11c-5.67-4.39-12.29.77-18,6.39-.51.5-.93.91-1.24,1.19l-.37.33c-3.14,2.8-5.13,3.83-12.34,2.63-4.08-.68-12.5-5.28-24.88-12.21C280.89,46.88,273.1,42.52,269.1,41c-2.57-1-4.7-.91-6.5.16-2.71,1.6-4.77,5.66-5.51,10.86-1.53,10.71-8.75,11.6-16.65,11.6-8.78,0-42.45-12.06-48.56-15.72-3-1.83-10.89-5.77-18-2.94-5.63,2.24-9.86,8.3-12.58,18-6.37,22.74.38,39.85,6.91,56.41,1.67,4.25,3.41,8.65,4.87,13a2.49,2.49,0,0,1,.1,1.15c-6,40.9-3.21,81.6-1.29,100.54,6.88-23.7,19.59-77.57,20-84.49a2.51,2.51,0,0,1,3-2.32c17.49,3.57,39.48-9.7,52.62-17.62A100.94,100.94,0,0,1,257.61,124c10.26-4.46,23.09-2.55,34.31,5.1,9.82,6.7,43.74,18.64,61.15,19.07,11.34.26,24.18-3.87,38.23-12.32l.3-.18A2.5,2.5,0,0,1,392.89,135.31Z" style="fill:#001e49"/></g></g></svg>