<svg xmlns="http://www.w3.org/2000/svg" viewBox="0 0 600 600"><g id="Cheveux-2" data-name="Cheveux"><g id="sans_frange2" data-name="sans frange2"><path id="color" d="M434.15,214.91c-20.65-82.35-52.22-104.52-91.08-139.36-47.35,61.76-104.43,69.68-133.57,76-17,85.52-42.5,118.78-42.5,118.78l-3.65-91.85L202.9,95.35,292.07,47,378.29,55l54.64,68.1,13.36,76Z" style="fill:#c4a97c"/><path id="contour" d="M167,272.84a2.51,2.51,0,0,1-2-4c.29-.38,25.39-34,42-117.74a2.48,2.48,0,0,1,1.92-2q3.08-.66,6.54-1.37c30.71-6.37,82.1-17,125.58-73.72a2.49,2.49,0,0,1,3.65-.34c3.18,2.85,6.31,5.61,9.39,8.33,35.37,31.25,63.3,55.93,82.44,132.28a2.5,2.5,0,1,1-4.85,1.22c-18.76-74.85-46.18-99.08-80.9-129.75-2.44-2.16-4.91-4.34-7.41-6.57-44.25,56.31-95.88,67-126.89,73.44l-4.89,1C194.71,237.58,170,270.49,169,271.86A2.49,2.49,0,0,1,167,272.84Z" style="fill:#001e49"/></g></g></svg>