<svg xmlns="http://www.w3.org/2000/svg" viewBox="0 0 600 600"><g id="corps"><g id="knp"><path id="color" d="M235.24,457.2c0-11.92,11.35-19.52,11.35-19.52s-72.73-3.66-95.54,98.83l41.67,16.89,1.41-11.26L193.56,600l214-.37L407,539.33l1.4,14.64,40.27-13.52s-11.83-91.79-95.54-102.67c0,0,9.38,5.06,9.38,14.64,0,17.54-29.28,27.22-61.94,27.22C267.33,479.64,235.24,471.19,235.24,457.2Z" style="fill:#ff2f2d"/><g id="pate"><path id="Path" d="M350.32,526.22c3.85,2,9.38-1.08,12.34-7s2.25-12.22-1.6-14.23-9.38,1.09-12.34,6.94S346.47,524.18,350.32,526.22Z" style="fill:#fff"/><path id="Path-2" data-name="Path" d="M338.38,524.26c2.44.88,5.49-1.48,6.73-5.25s.28-7.53-2.17-8.42-5.49,1.49-6.73,5.25S335.89,523.38,338.38,524.26Z" style="fill:#fff"/><path id="Path-3" data-name="Path" d="M380.74,534.12c-2-2.21-6.29-1.52-9.62,1.56s-4.37,7.3-2.41,9.5,6.3,1.52,9.62-1.52S382.74,536.32,380.74,534.12Z" style="fill:#fff"/><path id="Path-4" data-name="Path" d="M375.69,529.87c3.93-5.21,4.33-11.58.92-14.27s-9.34-.6-13.27,4.61-4.32,11.54-.92,14.23S371.8,535.08,375.69,529.87Z" style="fill:#fff"/><path id="Path-5" data-name="Path" d="M351.76,537.89c-4.33-2.13-8.41-10.22-13.54-7.18-4.41,2.61-1.77,9.9,4.93,16.07s21,2.85,21-3.36C364.07,537.89,355.85,539.89,351.76,537.89Z" style="fill:#fff"/></g><path id="contours" d="M452.44,540.74A2.66,2.66,0,0,0,452,540c-1.42-6.46-3.15-13.11-5.26-19.78-16.58-52.33-49.05-81.87-94-85.59l-2.91,5.25c.1.06,11,6.27,10.64,14.2-.23,4.65-3.85,9-10.76,13-29.53,17-61,12.85-85.2,7.33C249.68,471,241,465.66,239.25,459c-2.35-9.31,8.89-19,9-19.11l-2.52-5.48c-8.22.14-32.33,2.47-55.55,23.5-18.67,16.92-32,41.45-40,73.29-.29,1.16-.45,2.36-.82,3.51a2.35,2.35,0,0,0-.62.86,2.5,2.5,0,0,0,1.32,3.28l41.13,17.53-.71,43.58h5.43l1-59.49v0a2.72,2.72,0,1,0-5.44,0L191.29,551l-36.46-15.54c.15-.75.27-1.5.45-2.23,7.65-31,20.5-54.86,38.44-71.17s36.65-20.65,46.83-21.8c-3.8,5-8,12.63-6.15,20,2.21,8.77,12,15.19,29,19.09,11.53,2.63,24.7,5,38.58,5,16.25,0,33.49-3.19,50.23-12.84,8.48-4.89,12.94-10.64,13.25-17.11.25-5.15-2.61-9.84-5.67-13.34,54.42,8.49,77.08,57.81,86.5,99.29L410,552.75l-.11-13.46a2.78,2.78,0,0,0-2.72-2.82h0a2.79,2.79,0,0,0-2.7,2.84v0l.49,60.58h5.44L410,558l40.86-14.1A2.51,2.51,0,0,0,452.44,540.74Z" style="fill:#001e49"/></g></g></svg>