<?xml version="1.0" encoding="utf-8"?>
<svg version="1.1" xmlns="http://www.w3.org/2000/svg" xmlns:xlink="http://www.w3.org/1999/xlink" x="0px"
   y="0px" viewBox="0 0 1024 1024">
    <path d="M975.392 798.39c-0.004-0.004-0.008-0.008-0.012-0.010l-286.374-286.38 286.374-286.38c0.004-0.004 0.008-0.006 0.012-0.010 3.084-3.086 5.312-6.689 6.742-10.526 3.916-10.486 1.682-22.752-6.754-31.185l-135.281-135.281c-8.433-8.431-20.695-10.661-31.183-6.75-3.835 1.43-7.44 3.658-10.528 6.74 0 0.004-0.004 0.006-0.008 0.010l-286.378 286.382-286.378-286.38c-0.004-0.004-0.006-0.006-0.010-0.010-3.086-3.082-6.689-5.31-10.524-6.74-10.49-3.918-22.752-1.682-31.185 6.75l-135.283 135.283c-8.433 8.433-10.663 20.697-6.752 31.183 1.432 3.835 3.66 7.442 6.742 10.526 0.004 0.002 0.006 0.006 0.010 0.010l286.38 286.378-286.38 286.382c-0.002 0.004-0.006 0.006-0.008 0.010-3.082 3.086-5.31 6.689-6.744 10.524-3.918 10.486-1.682 22.752 6.752 31.185l135.283 135.281c8.435 8.433 20.697 10.663 31.185 6.752 3.835-1.432 7.44-3.66 10.526-6.742 0.002-0.004 0.006-0.006 0.010-0.010l286.378-286.38 286.378 286.38c0.004 0.002 0.008 0.006 0.012 0.008 3.088 3.084 6.689 5.312 10.524 6.744 10.488 3.916 22.754 1.682 31.183-6.752l135.281-135.283c8.433-8.433 10.665-20.699 6.754-31.185-1.432-3.835-3.66-7.438-6.744-10.524z"/>
</svg>
