<?xml version="1.0" encoding="utf-8"?>
<!-- Generator: Adobe Illustrator 25.4.1, SVG Export Plug-In . SVG Version: 6.00 Build 0)  -->
<svg version="1.1" id="fleche-gauche" xmlns="http://www.w3.org/2000/svg" xmlns:xlink="http://www.w3.org/1999/xlink" x="0px"
	 y="0px" viewBox="0 0 44 44" style="enable-background:new 0 0 44 44;" xml:space="preserve">
<style type="text/css">
	.st0{fill:#ffffff;}
</style>
<path class="st0" d="M34.8,20.6H12.5l5-5c0.5-0.5,0.5-1.4,0-1.9s-1.4-0.5-1.9,0L8.2,21c-0.1,0.1-0.2,0.3-0.3,0.5c0,0,0,0,0,0
	c-0.1,0.2-0.1,0.3-0.1,0.5v0l0,0v0c0,0.2,0,0.3,0.1,0.5c0,0,0,0,0,0C8,22.7,8.1,22.8,8.2,23l7.3,7.3c0.3,0.3,0.6,0.4,1,0.4
	s0.7-0.1,1-0.4c0.5-0.5,0.5-1.4,0-1.9l-5-5h22.3c0.8,0,1.4-0.6,1.4-1.4S35.6,20.6,34.8,20.6z"/>
</svg>
