<?xml version="1.0" encoding="utf-8"?>
<!-- Generator: Adobe Illustrator 25.4.1, SVG Export Plug-In . SVG Version: 6.00 Build 0)  -->
<svg version="1.1" id="fleche-droite" xmlns="http://www.w3.org/2000/svg" xmlns:xlink="http://www.w3.org/1999/xlink" x="0px"
	 y="0px" viewBox="0 0 44 44" style="enable-background:new 0 0 44 44;" xml:space="preserve">
<style type="text/css">
	.st0{fill:#ffffff;}
</style>
<path class="st0" d="M36.1,22.5C36.1,22.5,36.1,22.5,36.1,22.5c0.1-0.2,0.1-0.3,0.1-0.5c0-0.2,0-0.3-0.1-0.5c0,0,0,0,0,0
	c-0.1-0.2-0.2-0.3-0.3-0.4c0,0,0,0,0,0l-7.3-7.3c-0.5-0.5-1.4-0.5-1.9,0c-0.5,0.5-0.5,1.4,0,1.9l5,5H9.2c-0.8,0-1.4,0.6-1.4,1.4
	s0.6,1.4,1.4,1.4h22.3l-5,5c-0.5,0.5-0.5,1.4,0,1.9c0.3,0.3,0.6,0.4,1,0.4s0.7-0.1,1-0.4l7.3-7.3c0,0,0,0,0,0
	C35.9,22.8,36,22.7,36.1,22.5z"/>
</svg>
