<?xml version="1.0" encoding="utf-8"?>
<!-- Generator: Adobe Illustrator 25.4.1, SVG Export Plug-In . SVG Version: 6.00 Build 0)  -->
<svg version="1.1" id="Save" xmlns="http://www.w3.org/2000/svg" xmlns:xlink="http://www.w3.org/1999/xlink" x="0px" y="0px"
     viewBox="0 0 24 24" style="enable-background:new 0 0 24 24;" xml:space="preserve">
<style type="text/css">
    #Shape, #Path{fill:#ffffff;}
</style>
<path id="Shape" d="M23.7,5.3l-5-5C18.5,0.1,18.3,0,18,0h-7.5c-0.6,0-1,0.4-1,1s0.4,1,1,1H14v6H6.5V1c0-0.6-0.4-1-1-1H3
    C1.3,0,0,1.3,0,3v18c0,1.7,1.3,3,3,3h2.5h13H21c1.7,0,3-1.3,3-3V6C24,5.7,23.9,5.5,23.7,5.3z M17.5,22h-11v-5.5h11V22z M22,21
    c0,0.6-0.4,1-1,1h-1.5v-6.5c0-0.6-0.4-1-1-1h-13c-0.6,0-1,0.4-1,1V22H3c-0.6,0-1-0.4-1-1V3c0-0.6,0.4-1,1-1h1.5v7c0,0.6,0.4,1,1,1
    H15c0.6,0,1-0.4,1-1V2h1.6L22,6.4V21z"/>
<path id="Path" d="M8.5,3.5c-0.6,0-1,0.4-1,1v1c0,0.6,0.4,1,1,1s1-0.4,1-1v-1C9.5,3.9,9.1,3.5,8.5,3.5z"/>
</svg>
