<svg xmlns="http://www.w3.org/2000/svg" viewBox="0 0 600 600"><g id="Cheveux-2" data-name="Cheveux"><g id="cheveux-longs-raides"><path id="color" d="M149.94,560.15s1.68-279.79,1.68-375.29c0-30.9,20-77.56,55.28-110.57,26-24.29,63.67-40.21,102.2-40.21,42.72,0,86.28,19.27,105.55,40.21,18.45,20,38.53,60.31,38.53,110.57V560.15Z" style="fill:#c4a97c"/><path id="contour" d="M453.18,562.65H149.94a2.51,2.51,0,0,1-2.5-2.52c0-2.79,1.68-280.87,1.68-375.27,0-28.86,17.55-76.35,56.08-112.4,27.36-25.6,66.21-40.88,103.9-40.88A170.75,170.75,0,0,1,371.6,44c18.94,7.55,34.88,17.71,44.89,28.59,18.95,20.59,39.19,60.9,39.19,112.26V560.15A2.49,2.49,0,0,1,453.18,562.65Zm-300.72-5H450.68V184.86c0-50-20.4-89.89-37.87-108.88s-59.89-39.4-103.71-39.4c-36.46,0-74,14.78-100.49,39.53-27.08,25.34-54.49,70.83-54.49,108.75C154.12,274.46,152.62,529.47,152.46,557.65Z" style="fill:#001e49"/></g></g></svg>