<svg xmlns="http://www.w3.org/2000/svg" viewBox="0 0 600 600"><g id="Cheveux-2" data-name="Cheveux"><g id="cheveux-longs-ondules"><path id="color" d="M359.87,51.6S273-8.53,196.16,71.65s-25.06,232.2-36.75,275.63S124.33,432.47,131,455.86s20.05,51.78-6.68,86.86-11.69,55.13-11.69,55.13H478.47s1.31-44.08-20.05-68.49c-11.69-13.37-13.05-39.44-6.68-53.46,8.36-18.37,16.71-48.44,6.68-76.84s-8.35-120.27-3.34-168.72S468.45,65,359.87,51.6Z" style="fill:#c4a97c"/><path id="contour" d="M478.47,599.85H112.64a2,2,0,0,1-1.6-.8c-.65-.87-15.63-21.67,11.7-57.54,23.2-30.46,15.5-55.33,8.71-77.27-.84-2.71-1.63-5.28-2.36-7.83-4.55-15.94,4-39.19,13.86-66.1,5.17-14.08,10.51-28.64,14.53-43.55,3.44-12.8,1.12-36.33-1.56-63.58-6.51-66-15.42-156.34,38.8-212.91,40.29-42,83.38-45.33,112.43-40.69a143.07,143.07,0,0,1,53.44,20.1c47.28,6,78,32.07,91.4,77.58,10.34,35.18,8.15,73.68,5.08,103.29-5.17,50-6.49,140.29,3.24,167.85,11.39,32.25-.93,65.52-6.75,78.33-6.09,13.4-4.63,38.74,6.37,51.31,11.34,13,16.32,31.29,18.5,44.39a144.46,144.46,0,0,1,2,25.48A2,2,0,0,1,478.47,599.85Zm-364.73-4H476.48c-.07-8.7-1.48-44.51-19.56-65.18-12.16-13.89-13.72-40.81-7-55.59,5.62-12.37,17.52-44.47,6.62-75.35-9.91-28.08-8.66-119.2-3.45-169.59,3-29.25,5.2-67.24-4.94-101.76-12.92-44-42.71-69.15-88.53-74.79a2,2,0,0,1-.89-.34,140.51,140.51,0,0,0-52.37-19.74,115.73,115.73,0,0,0-51.72,3.13C234.05,42.78,214.86,55,197.61,73c-53,55.25-44.14,144.55-37.71,209.76,2.84,28.78,5.08,51.51,1.44,65-4.06,15.08-9.43,29.73-14.63,43.89-9.64,26.26-18,48.94-13.77,63.62.71,2.51,1.5,5.05,2.33,7.75,6.73,21.73,15.1,48.78-9.35,80.87C103.33,573.59,111.47,591.91,113.74,595.85Z" style="fill:#001e49"/></g></g></svg>