<svg xmlns="http://www.w3.org/2000/svg" viewBox="0 0 600 600"><g id="Cheveux-2" data-name="Cheveux"><g id="cheveux-miLongs-raides"><path id="color" d="M130.5,419.64s1.87-112.37,1.87-219.13c0-34.55,22.35-86.7,61.8-123.61C223.2,49.75,265.34,32,308.42,32c47.76,0,96.45,21.53,118,44.94,20.62,22.42,43.08,67.43,43.08,123.61V419.64H190.43l-13.11-26.22-15,26.22Z" style="fill:#c4a97c"/><path id="contour" d="M472,422.14H188.88l-11.71-23.42-13.38,23.42H128l0-2.54c0-1.12,1.87-113.57,1.87-219.09,0-17.95,5.81-40,16.35-62a214.34,214.34,0,0,1,46.25-63.43c30.54-28.57,73.88-45.62,116-45.62,22.88,0,47,4.79,69.75,13.87,21.14,8.43,38.92,19.75,50.08,31.88,21.14,23,43.74,68,43.74,125.3Zm-280-5H467V200.51c0-55.95-22.85-100.65-42.42-121.91S357.49,34.46,308.42,34.46c-40.83,0-82.9,16.55-112.54,44.27-30.32,28.36-61,79.3-61,121.78,0,96.74-1.56,199.31-1.83,216.63h27.84l16.59-29Z" style="fill:#001e49"/></g></g></svg>