<svg xmlns="http://www.w3.org/2000/svg" viewBox="0 0 600 600"><g id="Cheveux-2" data-name="Cheveux"><g id="cheveux-miLongs-ondule"><path id="color" d="M459.64,247.35c17.13-56.66,23.47-174.83-96.33-189.57,0,0-95.83-66.35-180.61,22.11-29.69,31-42,71.68-46,113.56-3.12,32.78,5.29,50.14,8,80.25,3.69,41.25-23.29,38.36-19.76,56.66,1.86,9.65,19.76,26.35,9.22,38.21s-32.94,30.31-19.76,35.58,30.3,1.32,43.48,13.18,35.58-1.32,47.43,1.31,44.8,18.45,65.89,17.13,51.39-11.86,68.51-5.27,31.63-3.95,39.53-11.86S400.35,416,412.21,420s23.71-3.95,29-9.22,18.45,0,27.67,1.32,27.67-15.82,15.82-26.36-34.26-31.62-25-48.75,7.91-40.85,1.32-55.34S457.64,254,459.64,247.35Z" style="fill:#c4a97c"/><path id="contour" d="M268.66,438.35c-14.94,0-34.28-7-48.62-12.22a155.46,155.46,0,0,0-15.25-5.05c-3.87-.86-9.52.3-15.5,1.52-11.17,2.29-23.84,4.89-33.06-3.41-7.67-6.91-17-8.08-26.12-9.21-5.61-.7-11.4-1.42-16.62-3.51-3.81-1.52-5.07-4-5.44-5.78-1.52-7.18,8-17,17.27-26.41,2.57-2.64,5-5.12,7-7.37,5.56-6.25,1.72-14-4.31-24.34-2.48-4.24-4.83-8.25-5.5-11.74-1.69-8.78,2.78-13.53,7.51-18.55,6.37-6.77,14.29-15.19,12.22-38.35a289.15,289.15,0,0,0-4.29-28.64c-2.94-15.81-5.72-30.74-3.69-52.08,4.72-49.59,20-87.22,46.65-115,44.54-46.48,92.17-50.11,124.29-45,32.35,5.18,55.24,19.67,59,22.18,39.53,5,68.72,21.56,86.75,49.25,13,19.95,19.9,45.07,20.52,74.66A228,228,0,0,1,462,248.07h0c-2.32,7.7-4.73,19.45,1.2,32.5,6.74,14.82,8.42,39.35-1.39,57.57-7.81,14.5,10.24,33,24.5,45.69,4.85,4.32,6,10.33,3.13,16.5-3.85,8.29-14,15.19-21,14.2-2.49-.35-5.14-1-7.95-1.6-6.88-1.57-14.67-3.35-17.6-.42-7,7-19.53,13.83-31.55,9.82l-2.55-.86c-10.61-3.59-21.58-7.3-27.83-1.06-18,18-34.16,15.51-42.19,12.43-10.68-4.11-27.34-1-43.45,1.9-8.61,1.58-16.73,3.07-24,3.53C270.49,438.32,269.58,438.35,268.66,438.35Zm-67-22.56a19.53,19.53,0,0,1,4.19.41c3.73.83,9.35,2.87,15.86,5.23,14.82,5.38,35.14,12.74,49.32,11.85,7-.44,15-1.9,23.42-3.45,16.8-3.08,34.17-6.27,46.15-1.66,15.26,5.87,28.47-2.9,36.87-11.29s21.47-4,33-.14l2.54.85c10.53,3.51,21.57-3.76,26.43-8.62s13.71-2.87,22.24-.92c2.71.62,5.26,1.2,7.55,1.53,4.31.61,12.58-4.61,15.71-11.36,1.95-4.2,1.31-7.78-1.92-10.65-9.89-8.79-36.16-32.14-25.57-51.8,8.94-16.61,7.31-39.77,1.24-53.13-7.4-16.28-2.91-31.13-1.43-36h0c11.73-38.83,16-98.6-10.47-139.28C429.5,80.82,401.31,65,363,60.26a2.52,2.52,0,0,1-1.12-.43c-.24-.16-24-16.39-57.68-21.73a127.55,127.55,0,0,0-56.93,3.45c-22.65,6.76-43.77,20.25-62.78,40.07-25.85,27-40.66,63.64-45.27,112.06-2,20.64.75,35.24,3.63,50.7a293.2,293.2,0,0,1,4.35,29.1c2.27,25.4-6.88,35.12-13.56,42.22-4.48,4.77-7.44,7.92-6.24,14.19.51,2.64,2.65,6.29,4.91,10.16,5.4,9.24,12.13,20.74,3.73,30.18-2.07,2.34-4.54,4.86-7.16,7.54-6.74,6.9-16.92,17.32-15.95,21.89.07.32.28,1.32,2.41,2.17,4.62,1.85,9.84,2.5,15.38,3.19,9.38,1.17,20,2.49,28.84,10.45,7.35,6.61,18.21,4.39,28.72,2.24C193.07,416.73,197.65,415.79,201.69,415.79Z" style="fill:#001e49"/></g></g></svg>